<svg width="32" height="32" viewBox="0 0 32 32" fill="none" xmlns="http://www.w3.org/2000/svg">
<path d="M9.75359 4.79981C8.84728 4.80047 7.96806 5.10891 7.25995 5.67458C6.55184 6.24025 6.05683 7.02963 5.85599 7.91341L3.31039 19.1134C3.17735 19.6988 3.17779 20.3067 3.31169 20.8919C3.44559 21.4772 3.70951 22.0248 4.08387 22.4941C4.45823 22.9634 4.93344 23.3425 5.47426 23.6031C6.01508 23.8638 6.60763 23.9994 7.20799 23.9998H24.792C25.3925 23.9996 25.9852 23.8642 26.5262 23.6037C27.0672 23.3431 27.5427 22.9641 27.9172 22.4947C28.2917 22.0253 28.5558 21.4777 28.6898 20.8923C28.8238 20.307 28.8243 19.699 28.6912 19.1134L26.1472 7.91341C25.9461 7.02856 25.4501 6.23837 24.7407 5.67258C24.0313 5.10679 23.1506 4.79902 22.2432 4.79981H9.75359ZM7.41439 8.26861C7.53479 7.73811 7.83184 7.26426 8.25685 6.92472C8.68185 6.58518 9.2096 6.4001 9.75359 6.39981H22.2448C22.789 6.39973 23.3172 6.58465 23.7425 6.92422C24.1678 7.26379 24.4651 7.73785 24.5856 8.26861L27.1312 19.4686C27.2109 19.82 27.2105 20.1848 27.13 20.5361C27.0495 20.8873 26.8909 21.2159 26.6661 21.4974C26.4412 21.779 26.1559 22.0063 25.8312 22.1626C25.5064 22.3188 25.1507 22.3999 24.7904 22.3998H7.20799C6.84779 22.3996 6.49225 22.3183 6.16774 22.162C5.84322 22.0057 5.55806 21.7784 5.33338 21.4968C5.1087 21.2153 4.95028 20.8868 4.86985 20.5357C4.78943 20.1846 4.78906 19.8199 4.86879 19.4686L7.41279 8.26861H7.41439ZM8.79999 25.5998C8.58781 25.5998 8.38433 25.6841 8.2343 25.8341C8.08427 25.9841 7.99999 26.1876 7.99999 26.3998C7.99999 26.612 8.08427 26.8155 8.2343 26.9655C8.38433 27.1155 8.58781 27.1998 8.79999 27.1998H23.2C23.4122 27.1998 23.6156 27.1155 23.7657 26.9655C23.9157 26.8155 24 26.612 24 26.3998C24 26.1876 23.9157 25.9841 23.7657 25.8341C23.6156 25.6841 23.4122 25.5998 23.2 25.5998H8.79999Z" fill="#46266E"/>
</svg>
