<svg width="503" height="264" viewBox="0 0 503 264" fill="none" xmlns="http://www.w3.org/2000/svg">
<circle cx="54.0967" cy="54.0967" r="54.0967" fill="#F5F5F5"/>
<circle cx="54.5439" cy="53.6503" r="40.2372" fill="white"/>
<circle cx="54" cy="53.1826" r="45" fill="white"/>
<path d="M71.4302 47.1909H62.1327V58.348H37.9591V63.9265H39.8186C39.8186 67.0876 42.236 69.505 45.3971 69.505C48.5583 69.505 50.9756 67.0876 50.9756 63.9265H62.1327C62.1327 67.0876 64.55 69.505 67.7112 69.505C70.8723 69.505 73.2897 67.0876 73.2897 63.9265H77.0087V54.629L71.4302 47.1909ZM45.3971 66.7157C43.9095 66.7157 42.6079 65.4141 42.6079 63.9265C42.6079 62.4389 43.9095 61.1372 45.3971 61.1372C46.8847 61.1372 48.1864 62.4389 48.1864 63.9265C48.1864 65.4141 46.8847 66.7157 45.3971 66.7157ZM67.7112 66.7157C66.2236 66.7157 64.9219 65.4141 64.9219 63.9265C64.9219 62.4389 66.2236 61.1372 67.7112 61.1372C69.1988 61.1372 70.5004 62.4389 70.5004 63.9265C70.5004 65.4141 69.1988 66.7157 67.7112 66.7157ZM65.8517 54.629V49.9802H70.5004L74.2194 54.629H65.8517ZM60.2732 49.9802C60.2732 53.5133 57.298 56.4885 53.7649 56.4885H42.6079C39.0748 56.4885 36.0996 53.5133 36.0996 49.9802C36.0996 46.4471 39.0748 43.4719 42.6079 43.4719H43.5376V41.6124H41.6781V39.7529H49.1161V41.6124H47.2566V43.4719H53.7649C57.298 43.4719 60.2732 46.4471 60.2732 49.9802Z" fill="#46266E"/>
<path d="M89.416 91.2039C210.575 212.363 226.223 194.032 253.047 184.197C274.507 176.328 394.325 107.597 451.551 74.2148" stroke="#D1D3D4" stroke-dasharray="4 4"/>
<circle cx="236.5" cy="202.683" r="60.5" fill="#F5F5F5"/>
<circle cx="236" cy="203.183" r="45" fill="white"/>
<path fill-rule="evenodd" clip-rule="evenodd" d="M256.769 222.499H215.859C215.345 222.499 214.93 222.083 214.93 221.569C214.93 221.055 215.345 220.639 215.859 220.639H256.769C257.283 220.639 257.698 221.055 257.698 221.569C257.698 222.083 257.283 222.499 256.769 222.499ZM228.876 213.201C229.39 213.201 229.806 213.617 229.806 214.131C229.806 214.645 229.39 215.061 228.876 215.061H221.438C220.924 215.061 220.508 214.645 220.508 214.131C220.508 213.617 220.924 213.201 221.438 213.201H222.368V201.114H221.438C220.924 201.114 220.508 200.699 220.508 200.185C220.508 199.671 220.924 199.255 221.438 199.255H228.876C229.39 199.255 229.806 199.671 229.806 200.185C229.806 200.699 229.39 201.114 228.876 201.114H227.946V213.201H228.876ZM226.087 201.114H224.227V213.201H226.087V201.114ZM240.033 213.201C240.547 213.201 240.963 213.617 240.963 214.131C240.963 214.645 240.547 215.061 240.033 215.061H232.595C232.081 215.061 231.665 214.645 231.665 214.131C231.665 213.617 232.081 213.201 232.595 213.201H233.525V201.114H232.595C232.081 201.114 231.665 200.699 231.665 200.185C231.665 199.671 232.081 199.255 232.595 199.255H240.033C240.547 199.255 240.963 199.671 240.963 200.185C240.963 200.699 240.547 201.114 240.033 201.114H239.103V213.201H240.033ZM237.244 201.114H235.384V213.201H237.244V201.114ZM254.909 217.85C254.909 218.364 254.493 218.78 253.979 218.78H218.649C218.135 218.78 217.719 218.364 217.719 217.85C217.719 217.336 218.135 216.92 218.649 216.92H253.979C254.493 216.92 254.909 217.336 254.909 217.85ZM251.19 213.201C251.704 213.201 252.12 213.617 252.12 214.131C252.12 214.645 251.704 215.061 251.19 215.061H243.752C243.238 215.061 242.822 214.645 242.822 214.131C242.822 213.617 243.238 213.201 243.752 213.201H244.682V201.114H243.752C243.238 201.114 242.822 200.699 242.822 200.185C242.822 199.671 243.238 199.255 243.752 199.255H251.19C251.704 199.255 252.12 199.671 252.12 200.185C252.12 200.699 251.704 201.114 251.19 201.114H250.26V213.201H251.19ZM248.401 201.114H246.541V213.201H248.401V201.114ZM216.789 195.536L236.314 184.901L255.839 195.536V197.395H216.789V195.536ZM251.693 195.536L236.314 187.585L220.876 195.536H251.693Z" fill="#46266E"/>
<circle cx="442.5" cy="91.6826" r="60.5" fill="#F5F5F5"/>
<circle cx="442" cy="92.1826" r="45" fill="white"/>
<path d="M437.054 78.9496C437.054 84.8439 447.016 95.3041 447.431 95.7192L448.178 96.4664L448.925 95.7192C449.34 95.3041 459.302 84.8439 459.302 78.9496C459.302 72.8063 454.321 67.8252 448.178 67.8252C442.035 67.8252 437.054 72.8063 437.054 78.9496ZM451.831 78.7005C451.831 80.693 450.171 82.3533 448.178 82.3533C446.186 82.3533 444.525 80.693 444.525 78.7005C444.525 76.7081 446.186 75.0477 448.178 75.0477C450.171 75.0477 451.831 76.7081 451.831 78.7005Z" fill="#46266E"/>
<path d="M457.559 87.417C456.812 87.417 456.148 88.0811 456.148 88.8283C456.148 89.5755 456.812 90.2396 457.559 90.2396H458.14L459.635 98.1263L455.65 101.032L430.163 90.2396H437.967C438.714 90.2396 439.378 89.5755 439.378 88.8283C439.378 88.0811 438.714 87.417 437.967 87.417H420.616L417.295 109.583H458.14C461.212 109.583 463.702 107.092 463.702 104.021L460.548 87.417H457.559ZM452.993 102.941L447.597 106.843H424.85L434.812 95.3037L452.993 102.941ZM423.024 90.2396L432.156 94.0584L421.197 106.843H420.533L423.024 90.2396ZM458.14 106.843H452.412L460.299 101.115L460.88 104.187C460.797 105.681 459.551 106.843 458.14 106.843Z" fill="#46266E"/>
</svg>
