<svg width="682" height="500" viewBox="0 0 682 500" fill="none" xmlns="http://www.w3.org/2000/svg">
<g filter="url(#filter0_d_2142_3786)">
<path d="M32 18C32 12.4772 36.4772 8 42 8H640C645.523 8 650 12.4772 650 18V434C650 439.523 645.523 444 640 444H42C36.4772 444 32 439.523 32 434V18Z" fill="#F9F6FE"/>
</g>
<path d="M612 27H69C57.9543 27 49 35.9543 49 47V402C49 413.046 57.9543 422 69 422H612C623.046 422 632 413.046 632 402V47C632 35.9543 623.046 27 612 27Z" fill="white"/>
<rect x="454.657" y="42" width="140.175" height="38" rx="10" fill="#F9F6FE"/>
<path d="M562.31 58L568.534 64L574.758 58" stroke="#7E7E7E" stroke-width="2" stroke-linecap="round" stroke-linejoin="round"/>
<path d="M477.3 56.636C478.212 56.636 479 56.808 479.664 57.152C480.336 57.488 480.848 57.972 481.2 58.604C481.56 59.236 481.74 59.98 481.74 60.836C481.74 61.692 481.56 62.436 481.2 63.068C480.848 63.692 480.336 64.172 479.664 64.508C479 64.836 478.212 65 477.3 65H474.696V56.636H477.3ZM477.3 64.1C478.38 64.1 479.204 63.816 479.772 63.248C480.34 62.672 480.624 61.868 480.624 60.836C480.624 59.796 480.336 58.984 479.76 58.4C479.192 57.816 478.372 57.524 477.3 57.524H475.788V64.1H477.3ZM482.653 61.688C482.653 61.016 482.789 60.428 483.061 59.924C483.333 59.412 483.705 59.016 484.177 58.736C484.657 58.456 485.189 58.316 485.773 58.316C486.349 58.316 486.849 58.44 487.273 58.688C487.697 58.936 488.013 59.248 488.221 59.624V58.424H489.325V65H488.221V63.776C488.005 64.16 487.681 64.48 487.249 64.736C486.825 64.984 486.329 65.108 485.761 65.108C485.177 65.108 484.649 64.964 484.177 64.676C483.705 64.388 483.333 63.984 483.061 63.464C482.789 62.944 482.653 62.352 482.653 61.688ZM488.221 61.7C488.221 61.204 488.121 60.772 487.921 60.404C487.721 60.036 487.449 59.756 487.105 59.564C486.769 59.364 486.397 59.264 485.989 59.264C485.581 59.264 485.209 59.36 484.873 59.552C484.537 59.744 484.269 60.024 484.069 60.392C483.869 60.76 483.769 61.192 483.769 61.688C483.769 62.192 483.869 62.632 484.069 63.008C484.269 63.376 484.537 63.66 484.873 63.86C485.209 64.052 485.581 64.148 485.989 64.148C486.397 64.148 486.769 64.052 487.105 63.86C487.449 63.66 487.721 63.376 487.921 63.008C488.121 62.632 488.221 62.196 488.221 61.7ZM491.614 57.356C491.406 57.356 491.23 57.284 491.086 57.14C490.942 56.996 490.87 56.82 490.87 56.612C490.87 56.404 490.942 56.228 491.086 56.084C491.23 55.94 491.406 55.868 491.614 55.868C491.814 55.868 491.982 55.94 492.118 56.084C492.262 56.228 492.334 56.404 492.334 56.612C492.334 56.82 492.262 56.996 492.118 57.14C491.982 57.284 491.814 57.356 491.614 57.356ZM492.142 58.424V65H491.05V58.424H492.142ZM494.975 56.12V65H493.883V56.12H494.975ZM497.808 56.12V65H496.716V56.12H497.808ZM505.213 58.424L501.253 68.096H500.125L501.421 64.928L498.769 58.424H499.981L502.045 63.752L504.085 58.424H505.213ZM515.102 58.424V65H514.01V64.028C513.802 64.364 513.51 64.628 513.134 64.82C512.766 65.004 512.358 65.096 511.91 65.096C511.398 65.096 510.938 64.992 510.53 64.784C510.122 64.568 509.798 64.248 509.558 63.824C509.326 63.4 509.21 62.884 509.21 62.276V58.424H510.29V62.132C510.29 62.78 510.454 63.28 510.782 63.632C511.11 63.976 511.558 64.148 512.126 64.148C512.71 64.148 513.17 63.968 513.506 63.608C513.842 63.248 514.01 62.724 514.01 62.036V58.424H515.102ZM519.154 65.108C518.65 65.108 518.198 65.024 517.798 64.856C517.398 64.68 517.082 64.44 516.85 64.136C516.618 63.824 516.49 63.468 516.466 63.068H517.594C517.626 63.396 517.778 63.664 518.05 63.872C518.33 64.08 518.694 64.184 519.142 64.184C519.558 64.184 519.886 64.092 520.126 63.908C520.366 63.724 520.486 63.492 520.486 63.212C520.486 62.924 520.358 62.712 520.102 62.576C519.846 62.432 519.45 62.292 518.914 62.156C518.426 62.028 518.026 61.9 517.714 61.772C517.41 61.636 517.146 61.44 516.922 61.184C516.706 60.92 516.598 60.576 516.598 60.152C516.598 59.816 516.698 59.508 516.898 59.228C517.098 58.948 517.382 58.728 517.75 58.568C518.118 58.4 518.538 58.316 519.01 58.316C519.738 58.316 520.326 58.5 520.774 58.868C521.222 59.236 521.462 59.74 521.494 60.38H520.402C520.378 60.036 520.238 59.76 519.982 59.552C519.734 59.344 519.398 59.24 518.974 59.24C518.582 59.24 518.27 59.324 518.038 59.492C517.806 59.66 517.69 59.88 517.69 60.152C517.69 60.368 517.758 60.548 517.894 60.692C518.038 60.828 518.214 60.94 518.422 61.028C518.638 61.108 518.934 61.2 519.31 61.304C519.782 61.432 520.166 61.56 520.462 61.688C520.758 61.808 521.01 61.992 521.218 62.24C521.434 62.488 521.546 62.812 521.554 63.212C521.554 63.572 521.454 63.896 521.254 64.184C521.054 64.472 520.77 64.7 520.402 64.868C520.042 65.028 519.626 65.108 519.154 65.108ZM522.568 61.688C522.568 61.016 522.704 60.428 522.976 59.924C523.248 59.412 523.62 59.016 524.092 58.736C524.572 58.456 525.104 58.316 525.688 58.316C526.264 58.316 526.764 58.44 527.188 58.688C527.612 58.936 527.928 59.248 528.136 59.624V58.424H529.24V65H528.136V63.776C527.92 64.16 527.596 64.48 527.164 64.736C526.74 64.984 526.244 65.108 525.676 65.108C525.092 65.108 524.564 64.964 524.092 64.676C523.62 64.388 523.248 63.984 522.976 63.464C522.704 62.944 522.568 62.352 522.568 61.688ZM528.136 61.7C528.136 61.204 528.036 60.772 527.836 60.404C527.636 60.036 527.364 59.756 527.02 59.564C526.684 59.364 526.312 59.264 525.904 59.264C525.496 59.264 525.124 59.36 524.788 59.552C524.452 59.744 524.184 60.024 523.984 60.392C523.784 60.76 523.684 61.192 523.684 61.688C523.684 62.192 523.784 62.632 523.984 63.008C524.184 63.376 524.452 63.66 524.788 63.86C525.124 64.052 525.496 64.148 525.904 64.148C526.312 64.148 526.684 64.052 527.02 63.86C527.364 63.66 527.636 63.376 527.836 63.008C528.036 62.632 528.136 62.196 528.136 61.7ZM533.677 58.316C534.245 58.316 534.741 58.44 535.165 58.688C535.597 58.936 535.917 59.248 536.125 59.624V58.424H537.229V65.144C537.229 65.744 537.101 66.276 536.845 66.74C536.589 67.212 536.221 67.58 535.741 67.844C535.269 68.108 534.717 68.24 534.085 68.24C533.221 68.24 532.501 68.036 531.925 67.628C531.349 67.22 531.009 66.664 530.905 65.96H531.985C532.105 66.36 532.353 66.68 532.729 66.92C533.105 67.168 533.557 67.292 534.085 67.292C534.685 67.292 535.173 67.104 535.549 66.728C535.933 66.352 536.125 65.824 536.125 65.144V63.764C535.909 64.148 535.589 64.468 535.165 64.724C534.741 64.98 534.245 65.108 533.677 65.108C533.093 65.108 532.561 64.964 532.081 64.676C531.609 64.388 531.237 63.984 530.965 63.464C530.693 62.944 530.557 62.352 530.557 61.688C530.557 61.016 530.693 60.428 530.965 59.924C531.237 59.412 531.609 59.016 532.081 58.736C532.561 58.456 533.093 58.316 533.677 58.316ZM536.125 61.7C536.125 61.204 536.025 60.772 535.825 60.404C535.625 60.036 535.353 59.756 535.009 59.564C534.673 59.364 534.301 59.264 533.893 59.264C533.485 59.264 533.113 59.36 532.777 59.552C532.441 59.744 532.173 60.024 531.973 60.392C531.773 60.76 531.673 61.192 531.673 61.688C531.673 62.192 531.773 62.632 531.973 63.008C532.173 63.376 532.441 63.66 532.777 63.86C533.113 64.052 533.485 64.148 533.893 64.148C534.301 64.148 534.673 64.052 535.009 63.86C535.353 63.66 535.625 63.376 535.825 63.008C536.025 62.632 536.125 62.196 536.125 61.7ZM544.954 61.46C544.954 61.668 544.942 61.888 544.918 62.12H539.662C539.702 62.768 539.922 63.276 540.322 63.644C540.73 64.004 541.222 64.184 541.798 64.184C542.27 64.184 542.662 64.076 542.974 63.86C543.294 63.636 543.518 63.34 543.646 62.972H544.822C544.646 63.604 544.294 64.12 543.766 64.52C543.238 64.912 542.582 65.108 541.798 65.108C541.174 65.108 540.614 64.968 540.118 64.688C539.63 64.408 539.246 64.012 538.966 63.5C538.686 62.98 538.546 62.38 538.546 61.7C538.546 61.02 538.682 60.424 538.954 59.912C539.226 59.4 539.606 59.008 540.094 58.736C540.59 58.456 541.158 58.316 541.798 58.316C542.422 58.316 542.974 58.452 543.454 58.724C543.934 58.996 544.302 59.372 544.558 59.852C544.822 60.324 544.954 60.86 544.954 61.46ZM543.826 61.232C543.826 60.816 543.734 60.46 543.55 60.164C543.366 59.86 543.114 59.632 542.794 59.48C542.482 59.32 542.134 59.24 541.75 59.24C541.198 59.24 540.726 59.416 540.334 59.768C539.95 60.12 539.73 60.608 539.674 61.232H543.826Z" fill="#7E7E7E"/>
<path d="M248.817 395.094C248.757 394.886 248.673 394.703 248.566 394.544C248.458 394.382 248.325 394.246 248.169 394.135C248.016 394.021 247.84 393.935 247.641 393.875C247.445 393.815 247.227 393.786 246.989 393.786C246.543 393.786 246.151 393.896 245.813 394.118C245.477 394.339 245.216 394.662 245.029 395.085C244.841 395.506 244.747 396.02 244.747 396.628C244.747 397.236 244.84 397.753 245.024 398.179C245.209 398.605 245.47 398.93 245.808 399.155C246.146 399.376 246.546 399.487 247.006 399.487C247.423 399.487 247.78 399.413 248.075 399.266C248.374 399.115 248.601 398.903 248.757 398.631C248.916 398.358 248.996 398.036 248.996 397.663L249.371 397.719H247.121V396.33H250.773V397.429C250.773 398.196 250.611 398.855 250.287 399.406C249.963 399.955 249.517 400.378 248.949 400.676C248.381 400.972 247.73 401.119 246.997 401.119C246.179 401.119 245.46 400.939 244.841 400.578C244.222 400.214 243.739 399.699 243.392 399.031C243.048 398.361 242.877 397.565 242.877 396.645C242.877 395.937 242.979 395.307 243.183 394.753C243.391 394.196 243.681 393.724 244.053 393.338C244.425 392.952 244.858 392.658 245.352 392.456C245.847 392.254 246.382 392.153 246.959 392.153C247.453 392.153 247.914 392.226 248.34 392.371C248.766 392.513 249.144 392.714 249.473 392.976C249.806 393.237 250.077 393.548 250.287 393.909C250.497 394.267 250.632 394.662 250.692 395.094H248.817ZM255.108 401.128C254.434 401.128 253.855 400.991 253.369 400.719C252.886 400.443 252.514 400.054 252.253 399.551C251.991 399.045 251.861 398.447 251.861 397.757C251.861 397.084 251.991 396.493 252.253 395.984C252.514 395.476 252.882 395.08 253.356 394.795C253.834 394.511 254.393 394.369 255.035 394.369C255.467 394.369 255.869 394.439 256.241 394.578C256.616 394.714 256.943 394.92 257.221 395.196C257.503 395.472 257.721 395.818 257.878 396.236C258.034 396.651 258.112 397.136 258.112 397.693V398.192H252.585V397.067H256.403C256.403 396.805 256.346 396.574 256.233 396.372C256.119 396.17 255.961 396.013 255.76 395.899C255.561 395.783 255.329 395.724 255.065 395.724C254.79 395.724 254.545 395.788 254.332 395.916C254.122 396.041 253.957 396.21 253.838 396.423C253.719 396.634 253.657 396.868 253.655 397.126V398.196C253.655 398.52 253.714 398.8 253.834 399.036C253.956 399.271 254.128 399.453 254.349 399.581C254.571 399.709 254.834 399.773 255.138 399.773C255.339 399.773 255.524 399.744 255.692 399.688C255.859 399.631 256.003 399.545 256.122 399.432C256.241 399.318 256.332 399.179 256.395 399.014L258.074 399.125C257.988 399.528 257.814 399.881 257.55 400.182C257.288 400.48 256.95 400.713 256.535 400.881C256.123 401.045 255.648 401.128 255.108 401.128ZM261.112 397.216V401H259.297V394.455H261.027V395.609H261.104C261.248 395.229 261.491 394.928 261.832 394.706C262.173 394.482 262.586 394.369 263.072 394.369C263.527 394.369 263.923 394.469 264.261 394.668C264.599 394.866 264.862 395.151 265.05 395.52C265.237 395.886 265.331 396.324 265.331 396.832V401H263.515V397.156C263.518 396.756 263.416 396.443 263.209 396.219C263.001 395.991 262.716 395.878 262.352 395.878C262.108 395.878 261.892 395.93 261.704 396.036C261.52 396.141 261.375 396.294 261.27 396.496C261.167 396.695 261.115 396.935 261.112 397.216ZM269.744 401.128C269.071 401.128 268.492 400.991 268.006 400.719C267.523 400.443 267.151 400.054 266.889 399.551C266.628 399.045 266.497 398.447 266.497 397.757C266.497 397.084 266.628 396.493 266.889 395.984C267.151 395.476 267.519 395.08 267.993 394.795C268.47 394.511 269.03 394.369 269.672 394.369C270.104 394.369 270.506 394.439 270.878 394.578C271.253 394.714 271.58 394.92 271.858 395.196C272.139 395.472 272.358 395.818 272.514 396.236C272.671 396.651 272.749 397.136 272.749 397.693V398.192H267.222V397.067H271.04C271.04 396.805 270.983 396.574 270.869 396.372C270.756 396.17 270.598 396.013 270.396 395.899C270.198 395.783 269.966 395.724 269.702 395.724C269.426 395.724 269.182 395.788 268.969 395.916C268.759 396.041 268.594 396.21 268.475 396.423C268.355 396.634 268.294 396.868 268.291 397.126V398.196C268.291 398.52 268.351 398.8 268.47 399.036C268.593 399.271 268.764 399.453 268.986 399.581C269.208 399.709 269.47 399.773 269.774 399.773C269.976 399.773 270.161 399.744 270.328 399.688C270.496 399.631 270.639 399.545 270.759 399.432C270.878 399.318 270.969 399.179 271.031 399.014L272.71 399.125C272.625 399.528 272.45 399.881 272.186 400.182C271.925 400.48 271.587 400.713 271.172 400.881C270.76 401.045 270.284 401.128 269.744 401.128ZM273.933 401V394.455H275.693V395.597H275.762C275.881 395.19 276.081 394.884 276.362 394.676C276.644 394.466 276.968 394.361 277.334 394.361C277.425 394.361 277.523 394.366 277.628 394.378C277.733 394.389 277.825 394.405 277.905 394.425V396.036C277.82 396.01 277.702 395.987 277.551 395.967C277.401 395.947 277.263 395.938 277.138 395.938C276.871 395.938 276.632 395.996 276.422 396.112C276.215 396.226 276.05 396.385 275.928 396.589C275.808 396.794 275.749 397.03 275.749 397.297V401H273.933ZM280.523 401.124C280.105 401.124 279.733 401.051 279.406 400.906C279.079 400.759 278.821 400.541 278.631 400.254C278.443 399.964 278.349 399.604 278.349 399.172C278.349 398.808 278.416 398.503 278.55 398.256C278.683 398.009 278.865 397.81 279.095 397.659C279.325 397.509 279.586 397.395 279.879 397.318C280.175 397.241 280.484 397.188 280.808 397.156C281.189 397.116 281.496 397.08 281.729 397.045C281.961 397.009 282.131 396.955 282.236 396.884C282.341 396.812 282.393 396.707 282.393 396.568V396.543C282.393 396.273 282.308 396.064 282.138 395.916C281.97 395.768 281.731 395.695 281.422 395.695C281.095 395.695 280.835 395.767 280.642 395.912C280.449 396.054 280.321 396.233 280.258 396.449L278.579 396.312C278.665 395.915 278.832 395.571 279.082 395.281C279.332 394.989 279.655 394.764 280.05 394.608C280.447 394.449 280.907 394.369 281.43 394.369C281.794 394.369 282.142 394.412 282.474 394.497C282.809 394.582 283.106 394.714 283.365 394.893C283.626 395.072 283.832 395.303 283.983 395.584C284.133 395.862 284.209 396.196 284.209 396.585V401H282.487V400.092H282.436C282.331 400.297 282.19 400.477 282.014 400.634C281.838 400.787 281.626 400.908 281.379 400.996C281.132 401.081 280.846 401.124 280.523 401.124ZM281.042 399.871C281.309 399.871 281.545 399.818 281.75 399.713C281.954 399.605 282.115 399.46 282.231 399.278C282.348 399.097 282.406 398.891 282.406 398.661V397.966C282.349 398.003 282.271 398.037 282.172 398.068C282.075 398.097 281.966 398.124 281.844 398.149C281.721 398.172 281.599 398.193 281.477 398.213C281.355 398.23 281.244 398.246 281.145 398.26C280.932 398.291 280.746 398.341 280.586 398.409C280.427 398.477 280.304 398.57 280.216 398.686C280.128 398.8 280.084 398.942 280.084 399.112C280.084 399.359 280.173 399.548 280.352 399.679C280.534 399.807 280.764 399.871 281.042 399.871ZM289.099 394.455V395.818H285.157V394.455H289.099ZM286.052 392.886H287.867V398.989C287.867 399.156 287.893 399.287 287.944 399.381C287.995 399.472 288.066 399.536 288.157 399.572C288.251 399.609 288.358 399.628 288.481 399.628C288.566 399.628 288.651 399.621 288.736 399.607C288.822 399.589 288.887 399.577 288.932 399.568L289.218 400.919C289.127 400.947 288.999 400.98 288.834 401.017C288.67 401.057 288.469 401.081 288.233 401.089C287.796 401.107 287.412 401.048 287.083 400.915C286.756 400.781 286.502 400.574 286.32 400.293C286.138 400.011 286.049 399.656 286.052 399.227V392.886ZM293.168 401.128C292.506 401.128 291.934 400.987 291.451 400.706C290.971 400.422 290.6 400.027 290.339 399.521C290.077 399.013 289.947 398.423 289.947 397.753C289.947 397.077 290.077 396.486 290.339 395.98C290.6 395.472 290.971 395.077 291.451 394.795C291.934 394.511 292.506 394.369 293.168 394.369C293.83 394.369 294.401 394.511 294.881 394.795C295.364 395.077 295.736 395.472 295.998 395.98C296.259 396.486 296.39 397.077 296.39 397.753C296.39 398.423 296.259 399.013 295.998 399.521C295.736 400.027 295.364 400.422 294.881 400.706C294.401 400.987 293.83 401.128 293.168 401.128ZM293.177 399.722C293.478 399.722 293.729 399.636 293.931 399.466C294.133 399.293 294.285 399.057 294.387 398.759C294.492 398.46 294.545 398.121 294.545 397.74C294.545 397.359 294.492 397.02 294.387 396.722C294.285 396.423 294.133 396.187 293.931 396.014C293.729 395.841 293.478 395.754 293.177 395.754C292.873 395.754 292.617 395.841 292.41 396.014C292.205 396.187 292.05 396.423 291.945 396.722C291.843 397.02 291.792 397.359 291.792 397.74C291.792 398.121 291.843 398.46 291.945 398.759C292.05 399.057 292.205 399.293 292.41 399.466C292.617 399.636 292.873 399.722 293.177 399.722ZM297.57 401V394.455H299.33V395.597H299.398C299.518 395.19 299.718 394.884 299.999 394.676C300.28 394.466 300.604 394.361 300.971 394.361C301.062 394.361 301.16 394.366 301.265 394.378C301.37 394.389 301.462 394.405 301.542 394.425V396.036C301.456 396.01 301.339 395.987 301.188 395.967C301.037 395.947 300.9 395.938 300.775 395.938C300.508 395.938 300.269 395.996 300.059 396.112C299.851 396.226 299.687 396.385 299.564 396.589C299.445 396.794 299.385 397.03 299.385 397.297V401H297.57Z" fill="#333333"/>
<path d="M234.838 396C234.838 392.686 231.985 390 228.466 390C224.947 390 222.095 392.686 222.095 396C222.095 399.314 224.947 402 228.466 402C231.985 402 234.838 399.314 234.838 396Z" fill="#FCD462"/>
<path d="M350.377 401V392.273H353.82C354.482 392.273 355.046 392.399 355.512 392.652C355.978 392.902 356.333 393.25 356.577 393.696C356.824 394.139 356.948 394.651 356.948 395.23C356.948 395.81 356.823 396.321 356.573 396.764C356.323 397.207 355.961 397.553 355.486 397.8C355.015 398.047 354.444 398.17 353.773 398.17H351.579V396.692H353.475C353.83 396.692 354.123 396.631 354.353 396.509C354.586 396.384 354.759 396.212 354.873 395.993C354.989 395.771 355.047 395.517 355.047 395.23C355.047 394.94 354.989 394.687 354.873 394.472C354.759 394.253 354.586 394.084 354.353 393.964C354.12 393.842 353.824 393.781 353.466 393.781H352.222V401H350.377ZM360.964 401.128C360.302 401.128 359.73 400.987 359.247 400.706C358.767 400.422 358.396 400.027 358.135 399.521C357.873 399.013 357.743 398.423 357.743 397.753C357.743 397.077 357.873 396.486 358.135 395.98C358.396 395.472 358.767 395.077 359.247 394.795C359.73 394.511 360.302 394.369 360.964 394.369C361.626 394.369 362.197 394.511 362.677 394.795C363.16 395.077 363.532 395.472 363.794 395.98C364.055 396.486 364.186 397.077 364.186 397.753C364.186 398.423 364.055 399.013 363.794 399.521C363.532 400.027 363.16 400.422 362.677 400.706C362.197 400.987 361.626 401.128 360.964 401.128ZM360.973 399.722C361.274 399.722 361.525 399.636 361.727 399.466C361.929 399.293 362.081 399.057 362.183 398.759C362.288 398.46 362.341 398.121 362.341 397.74C362.341 397.359 362.288 397.02 362.183 396.722C362.081 396.423 361.929 396.187 361.727 396.014C361.525 395.841 361.274 395.754 360.973 395.754C360.669 395.754 360.413 395.841 360.206 396.014C360.001 396.187 359.846 396.423 359.741 396.722C359.639 397.02 359.588 397.359 359.588 397.74C359.588 398.121 359.639 398.46 359.741 398.759C359.846 399.057 360.001 399.293 360.206 399.466C360.413 399.636 360.669 399.722 360.973 399.722ZM366.493 401L364.712 394.455H366.549L367.563 398.852H367.623L368.679 394.455H370.482L371.556 398.827H371.611L372.608 394.455H374.441L372.664 401H370.742L369.617 396.884H369.536L368.411 401H366.493ZM378.228 401.128C377.555 401.128 376.975 400.991 376.49 400.719C376.007 400.443 375.634 400.054 375.373 399.551C375.112 399.045 374.981 398.447 374.981 397.757C374.981 397.084 375.112 396.493 375.373 395.984C375.634 395.476 376.002 395.08 376.477 394.795C376.954 394.511 377.514 394.369 378.156 394.369C378.588 394.369 378.99 394.439 379.362 394.578C379.737 394.714 380.063 394.92 380.342 395.196C380.623 395.472 380.842 395.818 380.998 396.236C381.154 396.651 381.232 397.136 381.232 397.693V398.192H375.705V397.067H379.524C379.524 396.805 379.467 396.574 379.353 396.372C379.24 396.17 379.082 396.013 378.88 395.899C378.681 395.783 378.45 395.724 378.186 395.724C377.91 395.724 377.666 395.788 377.453 395.916C377.242 396.041 377.078 396.21 376.958 396.423C376.839 396.634 376.778 396.868 376.775 397.126V398.196C376.775 398.52 376.835 398.8 376.954 399.036C377.076 399.271 377.248 399.453 377.47 399.581C377.691 399.709 377.954 399.773 378.258 399.773C378.46 399.773 378.644 399.744 378.812 399.688C378.98 399.631 379.123 399.545 379.242 399.432C379.362 399.318 379.453 399.179 379.515 399.014L381.194 399.125C381.109 399.528 380.934 399.881 380.67 400.182C380.409 400.48 380.07 400.713 379.656 400.881C379.244 401.045 378.768 401.128 378.228 401.128ZM382.417 401V394.455H384.177V395.597H384.245C384.365 395.19 384.565 394.884 384.846 394.676C385.127 394.466 385.451 394.361 385.818 394.361C385.909 394.361 386.007 394.366 386.112 394.378C386.217 394.389 386.309 394.405 386.389 394.425V396.036C386.303 396.01 386.186 395.987 386.035 395.967C385.884 395.947 385.747 395.938 385.622 395.938C385.355 395.938 385.116 395.996 384.906 396.112C384.698 396.226 384.534 396.385 384.411 396.589C384.292 396.794 384.232 397.03 384.232 397.297V401H382.417ZM395.926 395.094C395.866 394.886 395.782 394.703 395.674 394.544C395.566 394.382 395.434 394.246 395.278 394.135C395.124 394.021 394.948 393.935 394.749 393.875C394.553 393.815 394.336 393.786 394.097 393.786C393.651 393.786 393.259 393.896 392.921 394.118C392.586 394.339 392.325 394.662 392.137 395.085C391.95 395.506 391.856 396.02 391.856 396.628C391.856 397.236 391.948 397.753 392.133 398.179C392.318 398.605 392.579 398.93 392.917 399.155C393.255 399.376 393.654 399.487 394.115 399.487C394.532 399.487 394.889 399.413 395.184 399.266C395.482 399.115 395.71 398.903 395.866 398.631C396.025 398.358 396.105 398.036 396.105 397.663L396.48 397.719H394.23V396.33H397.882V397.429C397.882 398.196 397.72 398.855 397.396 399.406C397.072 399.955 396.626 400.378 396.058 400.676C395.49 400.972 394.839 401.119 394.106 401.119C393.288 401.119 392.569 400.939 391.95 400.578C391.33 400.214 390.847 399.699 390.501 399.031C390.157 398.361 389.985 397.565 389.985 396.645C389.985 395.937 390.088 395.307 390.292 394.753C390.499 394.196 390.789 393.724 391.161 393.338C391.534 392.952 391.967 392.658 392.461 392.456C392.955 392.254 393.491 392.153 394.068 392.153C394.562 392.153 395.022 392.226 395.448 392.371C395.874 392.513 396.252 392.714 396.582 392.976C396.914 393.237 397.186 393.548 397.396 393.909C397.606 394.267 397.741 394.662 397.801 395.094H395.926ZM399.233 401V394.455H400.993V395.597H401.062C401.181 395.19 401.381 394.884 401.662 394.676C401.944 394.466 402.268 394.361 402.634 394.361C402.725 394.361 402.823 394.366 402.928 394.378C403.033 394.389 403.126 394.405 403.205 394.425V396.036C403.12 396.01 403.002 395.987 402.851 395.967C402.701 395.947 402.563 395.938 402.438 395.938C402.171 395.938 401.932 395.996 401.722 396.112C401.515 396.226 401.35 396.385 401.228 396.589C401.108 396.794 401.049 397.03 401.049 397.297V401H399.233ZM404.144 401V394.455H405.959V401H404.144ZM405.056 393.611C404.786 393.611 404.554 393.521 404.361 393.342C404.171 393.161 404.075 392.943 404.075 392.69C404.075 392.44 404.171 392.226 404.361 392.047C404.554 391.865 404.786 391.774 405.056 391.774C405.325 391.774 405.556 391.865 405.746 392.047C405.939 392.226 406.036 392.44 406.036 392.69C406.036 392.943 405.939 393.161 405.746 393.342C405.556 393.521 405.325 393.611 405.056 393.611ZM409.825 401.107C409.328 401.107 408.878 400.979 408.474 400.723C408.074 400.464 407.755 400.085 407.52 399.585C407.287 399.082 407.17 398.466 407.17 397.736C407.17 396.986 407.291 396.362 407.532 395.865C407.774 395.365 408.095 394.991 408.496 394.744C408.899 394.494 409.341 394.369 409.821 394.369C410.187 394.369 410.493 394.432 410.737 394.557C410.984 394.679 411.183 394.832 411.334 395.017C411.487 395.199 411.603 395.378 411.683 395.554H411.738V392.273H413.55V401H411.76V399.952H411.683C411.598 400.134 411.477 400.314 411.321 400.493C411.167 400.669 410.967 400.815 410.72 400.932C410.476 401.048 410.177 401.107 409.825 401.107ZM410.4 399.662C410.693 399.662 410.94 399.582 411.142 399.423C411.346 399.261 411.503 399.036 411.611 398.746C411.721 398.456 411.777 398.116 411.777 397.727C411.777 397.338 411.723 397 411.615 396.713C411.507 396.426 411.351 396.205 411.146 396.048C410.942 395.892 410.693 395.814 410.4 395.814C410.102 395.814 409.851 395.895 409.646 396.057C409.442 396.219 409.287 396.443 409.182 396.73C409.077 397.017 409.024 397.349 409.024 397.727C409.024 398.108 409.077 398.445 409.182 398.737C409.29 399.027 409.444 399.254 409.646 399.419C409.851 399.581 410.102 399.662 410.4 399.662Z" fill="#333333"/>
<path d="M342.185 396C342.185 392.686 339.332 390 335.813 390C332.294 390 329.442 392.686 329.442 396C329.442 399.314 332.294 402 335.813 402C339.332 402 342.185 399.314 342.185 396Z" fill="#370F70"/>
<path d="M82.0273 51.46C83.9907 51.46 85.5107 52.0047 86.5873 53.094C87.664 54.1707 88.2023 55.716 88.2023 57.73C88.2023 59.7313 87.664 61.2767 86.5873 62.366C85.5107 63.4553 83.9907 64 82.0273 64H77.1823V51.46H82.0273ZM81.8943 61.91C83.085 61.91 83.978 61.5553 84.5733 60.846C85.1813 60.124 85.4853 59.0853 85.4853 57.73C85.4853 56.3747 85.1813 55.3423 84.5733 54.633C83.978 53.911 83.085 53.55 81.8943 53.55H79.8043V61.91H81.8943ZM95.9134 57.939C95.9134 57.3943 95.755 56.97 95.4384 56.666C95.1344 56.362 94.729 56.21 94.2224 56.21C93.7537 56.21 93.342 56.3303 92.9874 56.571C92.6327 56.8117 92.373 57.2107 92.2084 57.768L89.9854 57.084C90.2007 56.248 90.6694 55.5767 91.3914 55.07C92.126 54.5633 93.1077 54.31 94.3364 54.31C95.1724 54.31 95.9007 54.443 96.5214 54.709C97.142 54.9623 97.6234 55.3487 97.9654 55.868C98.32 56.3873 98.4974 57.0397 98.4974 57.825V61.682C98.4974 62.1633 98.7254 62.404 99.1814 62.404C99.3967 62.404 99.5994 62.3723 99.7894 62.309L99.6374 63.924C99.308 64.0887 98.8964 64.171 98.4024 64.171C97.959 64.171 97.56 64.095 97.2054 63.943C96.8507 63.791 96.572 63.563 96.3694 63.259C96.1667 62.9423 96.0654 62.5497 96.0654 62.081V62.005L96.5214 61.929C96.4454 62.4103 96.2364 62.822 95.8944 63.164C95.5524 63.4933 95.1344 63.7467 94.6404 63.924C94.159 64.1013 93.6587 64.19 93.1394 64.19C92.4934 64.19 91.936 64.095 91.4674 63.905C90.9987 63.7023 90.6377 63.411 90.3844 63.031C90.131 62.651 90.0044 62.1823 90.0044 61.625C90.0044 60.9157 90.2324 60.3393 90.6884 59.896C91.1444 59.44 91.7967 59.1297 92.6454 58.965L96.2174 58.243L96.1984 59.858L93.9184 60.314C93.4877 60.4027 93.1584 60.523 92.9304 60.675C92.715 60.8143 92.6074 61.0487 92.6074 61.378C92.6074 61.6947 92.7214 61.9353 92.9494 62.1C93.19 62.2647 93.475 62.347 93.8044 62.347C94.0704 62.347 94.33 62.3153 94.5834 62.252C94.8367 62.1887 95.0647 62.0873 95.2674 61.948C95.47 61.8087 95.6284 61.6187 95.7424 61.378C95.8564 61.1373 95.9134 60.846 95.9134 60.504V57.939ZM102.72 53.132C102.175 53.132 101.77 53.018 101.504 52.79C101.238 52.5493 101.105 52.201 101.105 51.745C101.105 51.2763 101.238 50.928 101.504 50.7C101.77 50.4593 102.175 50.339 102.72 50.339C103.264 50.339 103.67 50.4593 103.936 50.7C104.202 50.928 104.335 51.2763 104.335 51.745C104.335 52.201 104.202 52.5493 103.936 52.79C103.67 53.018 103.264 53.132 102.72 53.132ZM104.012 54.5V64H101.409V54.5H104.012ZM109.336 50.339V61.074C109.336 61.5173 109.412 61.8277 109.564 62.005C109.716 62.1823 109.969 62.271 110.324 62.271C110.539 62.271 110.716 62.2583 110.856 62.233C110.995 62.195 111.172 62.1443 111.388 62.081L111.16 63.791C110.944 63.9177 110.672 64.0127 110.343 64.076C110.026 64.152 109.709 64.19 109.393 64.19C108.468 64.19 107.79 63.9683 107.36 63.525C106.942 63.069 106.733 62.347 106.733 61.359V50.339H109.336ZM121.379 54.5L117.541 64.589C117.237 65.4503 116.895 66.1343 116.515 66.641C116.147 67.1477 115.717 67.515 115.223 67.743C114.741 67.971 114.165 68.085 113.494 68.085C113 68.085 112.544 68.0217 112.126 67.895C111.72 67.781 111.366 67.629 111.062 67.439L111.613 65.558C111.853 65.748 112.107 65.881 112.373 65.957C112.639 66.0457 112.943 66.09 113.285 66.09C113.639 66.09 113.943 66.014 114.197 65.862C114.463 65.71 114.684 65.406 114.862 64.95L115.185 64.133L114.14 61.663L111.233 54.5H114.121L115.926 60.2L116.42 62.1L117.009 60.086L118.738 54.5H121.379ZM131.489 64.19C130.856 64.19 130.286 64.076 129.779 63.848C129.272 63.62 128.867 63.259 128.563 62.765C128.272 62.2583 128.126 61.606 128.126 60.808V54.5H130.729V60.181C130.729 60.9157 130.881 61.4287 131.185 61.72C131.489 61.9987 131.926 62.138 132.496 62.138C132.762 62.138 133.022 62.0937 133.275 62.005C133.528 61.9037 133.75 61.7517 133.94 61.549C134.143 61.3463 134.301 61.0867 134.415 60.77C134.529 60.4407 134.586 60.0543 134.586 59.611V54.5H137.189V64H134.871L134.776 62.347C134.459 62.9803 134.022 63.449 133.465 63.753C132.92 64.0443 132.262 64.19 131.489 64.19ZM143.728 64.19C142.765 64.19 141.885 64.019 141.087 63.677C140.302 63.335 139.662 62.8537 139.168 62.233L140.669 60.713C140.973 61.169 141.378 61.5427 141.885 61.834C142.392 62.1253 142.993 62.271 143.69 62.271C144.184 62.271 144.577 62.2013 144.868 62.062C145.172 61.91 145.324 61.6757 145.324 61.359C145.324 61.1563 145.254 60.9853 145.115 60.846C144.976 60.694 144.697 60.5737 144.279 60.485L142.607 60.143C141.505 59.915 140.72 59.573 140.251 59.117C139.795 58.6483 139.567 58.0467 139.567 57.312C139.567 56.7927 139.719 56.305 140.023 55.849C140.34 55.393 140.808 55.0257 141.429 54.747C142.05 54.4557 142.822 54.31 143.747 54.31C144.697 54.31 145.52 54.462 146.217 54.766C146.926 55.0573 147.484 55.4943 147.889 56.077L146.331 57.597C146.052 57.1537 145.685 56.818 145.229 56.59C144.786 56.3493 144.317 56.229 143.823 56.229C143.468 56.229 143.164 56.267 142.911 56.343C142.658 56.419 142.468 56.5267 142.341 56.666C142.214 56.7927 142.151 56.9573 142.151 57.16C142.151 57.3627 142.24 57.54 142.417 57.692C142.594 57.8313 142.917 57.9517 143.386 58.053L145.324 58.452C146.261 58.642 146.933 58.965 147.338 59.421C147.743 59.8643 147.946 60.4027 147.946 61.036C147.946 61.644 147.781 62.1887 147.452 62.67C147.135 63.1387 146.66 63.5123 146.027 63.791C145.406 64.057 144.64 64.19 143.728 64.19ZM155.437 57.939C155.437 57.3943 155.278 56.97 154.962 56.666C154.658 56.362 154.252 56.21 153.746 56.21C153.277 56.21 152.865 56.3303 152.511 56.571C152.156 56.8117 151.896 57.2107 151.732 57.768L149.509 57.084C149.724 56.248 150.193 55.5767 150.915 55.07C151.649 54.5633 152.631 54.31 153.86 54.31C154.696 54.31 155.424 54.443 156.045 54.709C156.665 54.9623 157.147 55.3487 157.489 55.868C157.843 56.3873 158.021 57.0397 158.021 57.825V61.682C158.021 62.1633 158.249 62.404 158.705 62.404C158.92 62.404 159.123 62.3723 159.313 62.309L159.161 63.924C158.831 64.0887 158.42 64.171 157.926 64.171C157.482 64.171 157.083 64.095 156.729 63.943C156.374 63.791 156.095 63.563 155.893 63.259C155.69 62.9423 155.589 62.5497 155.589 62.081V62.005L156.045 61.929C155.969 62.4103 155.76 62.822 155.418 63.164C155.076 63.4933 154.658 63.7467 154.164 63.924C153.682 64.1013 153.182 64.19 152.663 64.19C152.017 64.19 151.459 64.095 150.991 63.905C150.522 63.7023 150.161 63.411 149.908 63.031C149.654 62.651 149.528 62.1823 149.528 61.625C149.528 60.9157 149.756 60.3393 150.212 59.896C150.668 59.44 151.32 59.1297 152.169 58.965L155.741 58.243L155.722 59.858L153.442 60.314C153.011 60.4027 152.682 60.523 152.454 60.675C152.238 60.8143 152.131 61.0487 152.131 61.378C152.131 61.6947 152.245 61.9353 152.473 62.1C152.713 62.2647 152.998 62.347 153.328 62.347C153.594 62.347 153.853 62.3153 154.107 62.252C154.36 62.1887 154.588 62.0873 154.791 61.948C154.993 61.8087 155.152 61.6187 155.266 61.378C155.38 61.1373 155.437 60.846 155.437 60.504V57.939ZM169.765 52.239L170.069 54.101C170.019 54.101 169.962 54.101 169.898 54.101C169.848 54.0883 169.791 54.082 169.727 54.082C169.145 54.082 168.708 54.215 168.416 54.481C168.125 54.7343 167.979 55.089 167.979 55.545L166.915 55.108C166.915 54.6013 167.017 54.1327 167.219 53.702C167.422 53.2587 167.72 52.904 168.112 52.638C168.518 52.372 168.999 52.239 169.556 52.239C169.582 52.239 169.613 52.239 169.651 52.239C169.689 52.239 169.727 52.239 169.765 52.239ZM166.649 62.214C167.675 62.214 168.467 62.4357 169.024 62.879C169.582 63.3223 169.86 63.943 169.86 64.741C169.86 65.463 169.651 66.071 169.233 66.565C168.815 67.0717 168.226 67.4517 167.466 67.705C166.719 67.9583 165.851 68.085 164.863 68.085C163.229 68.085 162.032 67.857 161.272 67.401C160.525 66.945 160.151 66.3497 160.151 65.615C160.151 65.0957 160.348 64.6587 160.74 64.304C161.146 63.9493 161.811 63.753 162.735 63.715L162.64 64.019C161.982 63.905 161.475 63.6897 161.12 63.373C160.778 63.0437 160.607 62.594 160.607 62.024C160.607 61.4413 160.829 60.9663 161.272 60.599C161.728 60.219 162.343 59.9973 163.115 59.934L164.255 60.466H163.989C163.445 60.504 163.058 60.618 162.83 60.808C162.615 60.9853 162.507 61.188 162.507 61.416C162.507 61.682 162.609 61.8847 162.811 62.024C163.027 62.1507 163.331 62.214 163.723 62.214H166.649ZM164.882 66.299C165.541 66.299 166.079 66.242 166.497 66.128C166.928 66.014 167.245 65.8683 167.447 65.691C167.663 65.5137 167.77 65.3173 167.77 65.102C167.77 64.8613 167.675 64.665 167.485 64.513C167.295 64.3737 166.953 64.304 166.459 64.304H163.248C162.944 64.304 162.691 64.38 162.488 64.532C162.298 64.684 162.203 64.893 162.203 65.159C162.203 65.5137 162.438 65.7923 162.906 65.995C163.388 66.1977 164.046 66.299 164.882 66.299ZM164.901 54.31C165.788 54.31 166.554 54.443 167.2 54.709C167.859 54.9623 168.359 55.3297 168.701 55.811C169.056 56.2923 169.233 56.8687 169.233 57.54C169.233 58.1987 169.056 58.7687 168.701 59.25C168.359 59.7313 167.859 60.105 167.2 60.371C166.554 60.6243 165.788 60.751 164.901 60.751C163.495 60.751 162.419 60.466 161.671 59.896C160.937 59.3133 160.569 58.528 160.569 57.54C160.569 56.8687 160.74 56.2923 161.082 55.811C161.437 55.3297 161.937 54.9623 162.583 54.709C163.229 54.443 164.002 54.31 164.901 54.31ZM164.901 55.944C164.395 55.944 163.977 56.0833 163.647 56.362C163.318 56.6407 163.153 57.027 163.153 57.521C163.153 58.015 163.318 58.4077 163.647 58.699C163.977 58.9777 164.395 59.117 164.901 59.117C165.408 59.117 165.82 58.9777 166.136 58.699C166.466 58.4077 166.63 58.015 166.63 57.521C166.63 57.027 166.466 56.6407 166.136 56.362C165.82 56.0833 165.408 55.944 164.901 55.944ZM175.842 64.19C174.841 64.19 173.967 63.9937 173.22 63.601C172.485 63.2083 171.915 62.6447 171.51 61.91C171.105 61.1753 170.902 60.2887 170.902 59.25C170.902 58.2113 171.105 57.3247 171.51 56.59C171.915 55.8553 172.479 55.2917 173.201 54.899C173.936 54.5063 174.772 54.31 175.709 54.31C176.672 54.31 177.489 54.5063 178.16 54.899C178.831 55.279 179.344 55.8047 179.699 56.476C180.054 57.1347 180.231 57.8883 180.231 58.737C180.231 58.9903 180.225 59.231 180.212 59.459C180.199 59.687 180.18 59.8897 180.155 60.067H172.574V58.262H179.015L177.761 58.718C177.761 57.92 177.577 57.3057 177.21 56.875C176.855 56.4443 176.349 56.229 175.69 56.229C175.209 56.229 174.791 56.343 174.436 56.571C174.094 56.799 173.834 57.141 173.657 57.597C173.48 58.0403 173.391 58.604 173.391 59.288C173.391 59.9593 173.486 60.5167 173.676 60.96C173.879 61.3907 174.157 61.7137 174.512 61.929C174.879 62.1443 175.316 62.252 175.823 62.252C176.38 62.252 176.83 62.1443 177.172 61.929C177.514 61.7137 177.78 61.416 177.97 61.036L180.041 61.834C179.838 62.328 179.528 62.7523 179.11 63.107C178.705 63.4617 178.217 63.734 177.647 63.924C177.09 64.1013 176.488 64.19 175.842 64.19ZM192.557 54.31C193.406 54.31 194.122 54.4367 194.704 54.69C195.3 54.9307 195.775 55.2663 196.129 55.697C196.497 56.115 196.756 56.5837 196.908 57.103L194.476 57.977C194.35 57.407 194.134 56.9763 193.83 56.685C193.526 56.3937 193.115 56.248 192.595 56.248C192.114 56.248 191.702 56.362 191.36 56.59C191.018 56.8053 190.759 57.141 190.581 57.597C190.404 58.0403 190.315 58.5977 190.315 59.269C190.315 59.9403 190.404 60.4977 190.581 60.941C190.771 61.3843 191.037 61.7137 191.379 61.929C191.734 62.1443 192.146 62.252 192.614 62.252C192.994 62.252 193.317 62.1887 193.583 62.062C193.849 61.9227 194.065 61.7263 194.229 61.473C194.407 61.2197 194.527 60.9157 194.59 60.561L196.946 61.321C196.807 61.891 196.547 62.3913 196.167 62.822C195.787 63.2527 195.3 63.5883 194.704 63.829C194.109 64.0697 193.419 64.19 192.633 64.19C191.658 64.19 190.797 63.9937 190.049 63.601C189.302 63.2083 188.726 62.6447 188.32 61.91C187.915 61.1753 187.712 60.2887 187.712 59.25C187.712 58.2113 187.915 57.3247 188.32 56.59C188.726 55.8553 189.296 55.2917 190.03 54.899C190.765 54.5063 191.607 54.31 192.557 54.31ZM198.969 64V50.339H201.572V56.115C201.876 55.507 202.294 55.0573 202.826 54.766C203.358 54.462 203.96 54.31 204.631 54.31C205.29 54.31 205.872 54.4367 206.379 54.69C206.898 54.9433 207.304 55.3297 207.595 55.849C207.899 56.3557 208.051 56.9953 208.051 57.768V64H205.448V58.528C205.448 57.7047 205.29 57.141 204.973 56.837C204.656 56.5203 204.251 56.362 203.757 56.362C203.39 56.362 203.035 56.4507 202.693 56.628C202.364 56.7927 202.091 57.0713 201.876 57.464C201.673 57.844 201.572 58.3507 201.572 58.984V64H198.969ZM216.148 57.939C216.148 57.3943 215.989 56.97 215.673 56.666C215.369 56.362 214.963 56.21 214.457 56.21C213.988 56.21 213.576 56.3303 213.222 56.571C212.867 56.8117 212.607 57.2107 212.443 57.768L210.22 57.084C210.435 56.248 210.904 55.5767 211.626 55.07C212.36 54.5633 213.342 54.31 214.571 54.31C215.407 54.31 216.135 54.443 216.756 54.709C217.376 54.9623 217.858 55.3487 218.2 55.868C218.554 56.3873 218.732 57.0397 218.732 57.825V61.682C218.732 62.1633 218.96 62.404 219.416 62.404C219.631 62.404 219.834 62.3723 220.024 62.309L219.872 63.924C219.542 64.0887 219.131 64.171 218.637 64.171C218.193 64.171 217.794 64.095 217.44 63.943C217.085 63.791 216.806 63.563 216.604 63.259C216.401 62.9423 216.3 62.5497 216.3 62.081V62.005L216.756 61.929C216.68 62.4103 216.471 62.822 216.129 63.164C215.787 63.4933 215.369 63.7467 214.875 63.924C214.393 64.1013 213.893 64.19 213.374 64.19C212.728 64.19 212.17 64.095 211.702 63.905C211.233 63.7023 210.872 63.411 210.619 63.031C210.365 62.651 210.239 62.1823 210.239 61.625C210.239 60.9157 210.467 60.3393 210.923 59.896C211.379 59.44 212.031 59.1297 212.88 58.965L216.452 58.243L216.433 59.858L214.153 60.314C213.722 60.4027 213.393 60.523 213.165 60.675C212.949 60.8143 212.842 61.0487 212.842 61.378C212.842 61.6947 212.956 61.9353 213.184 62.1C213.424 62.2647 213.709 62.347 214.039 62.347C214.305 62.347 214.564 62.3153 214.818 62.252C215.071 62.1887 215.299 62.0873 215.502 61.948C215.704 61.8087 215.863 61.6187 215.977 61.378C216.091 61.1373 216.148 60.846 216.148 60.504V57.939ZM221.643 64V54.5H223.904L224.075 56.362C224.328 55.7033 224.696 55.1967 225.177 54.842C225.671 54.4873 226.285 54.31 227.02 54.31C227.235 54.31 227.432 54.329 227.609 54.367C227.786 54.405 227.932 54.4557 228.046 54.519L227.742 56.704C227.615 56.6533 227.457 56.6153 227.267 56.59C227.09 56.5647 226.855 56.552 226.564 56.552C226.184 56.552 225.817 56.647 225.462 56.837C225.107 57.0143 224.816 57.293 224.588 57.673C224.36 58.0403 224.246 58.509 224.246 59.079V64H221.643ZM232.669 51.593V60.903C232.669 61.359 232.783 61.6947 233.011 61.91C233.252 62.1127 233.575 62.214 233.98 62.214C234.297 62.214 234.575 62.1697 234.816 62.081C235.057 61.9797 235.272 61.8467 235.462 61.682L235.88 63.411C235.576 63.6517 235.196 63.8417 234.74 63.981C234.284 64.1203 233.803 64.19 233.296 64.19C232.663 64.19 232.099 64.095 231.605 63.905C231.124 63.715 230.744 63.411 230.465 62.993C230.199 62.575 230.066 62.0177 230.066 61.321V52.315L232.669 51.593ZM235.709 54.5V56.438H228.318V54.5H235.709Z" fill="#2B2B2B"/>
<path d="M170.027 351.645H558.728" stroke="#CCD6EB"/>
<path d="M157.973 344.576L157.973 102.993" stroke="#CCD6EB"/>
<path d="M204.127 359.44V365H203.215V361.192L201.519 365H200.887L199.183 361.192V365H198.271V359.44H199.255L201.207 363.8L203.151 359.44H204.127ZM207.158 365.072C206.742 365.072 206.366 364.979 206.03 364.792C205.694 364.6 205.43 364.333 205.238 363.992C205.046 363.645 204.95 363.245 204.95 362.792C204.95 362.344 205.048 361.947 205.246 361.6C205.443 361.253 205.712 360.987 206.054 360.8C206.395 360.613 206.776 360.52 207.198 360.52C207.619 360.52 208 360.613 208.342 360.8C208.683 360.987 208.952 361.253 209.15 361.6C209.347 361.947 209.446 362.344 209.446 362.792C209.446 363.24 209.344 363.637 209.142 363.984C208.939 364.331 208.662 364.6 208.31 364.792C207.963 364.979 207.579 365.072 207.158 365.072ZM207.158 364.28C207.392 364.28 207.611 364.224 207.814 364.112C208.022 364 208.19 363.832 208.318 363.608C208.446 363.384 208.51 363.112 208.51 362.792C208.51 362.472 208.448 362.203 208.326 361.984C208.203 361.76 208.04 361.592 207.838 361.48C207.635 361.368 207.416 361.312 207.182 361.312C206.947 361.312 206.728 361.368 206.526 361.48C206.328 361.592 206.171 361.76 206.054 361.984C205.936 362.203 205.878 362.472 205.878 362.792C205.878 363.267 205.998 363.635 206.238 363.896C206.483 364.152 206.79 364.28 207.158 364.28ZM212.491 360.52C212.838 360.52 213.147 360.592 213.419 360.736C213.696 360.88 213.912 361.093 214.067 361.376C214.222 361.659 214.299 362 214.299 362.4V365H213.395V362.536C213.395 362.141 213.296 361.84 213.099 361.632C212.902 361.419 212.632 361.312 212.291 361.312C211.95 361.312 211.678 361.419 211.475 361.632C211.278 361.84 211.179 362.141 211.179 362.536V365H210.267V360.592H211.179V361.096C211.328 360.915 211.518 360.773 211.747 360.672C211.982 360.571 212.23 360.52 212.491 360.52Z" fill="#4F4F4F"/>
<path d="M261.331 359.44V360.184H259.851V365H258.939V360.184H257.451V359.44H261.331ZM266.167 360.592V365H265.255V364.48C265.111 364.661 264.921 364.805 264.687 364.912C264.457 365.013 264.212 365.064 263.951 365.064C263.604 365.064 263.292 364.992 263.015 364.848C262.743 364.704 262.527 364.491 262.367 364.208C262.212 363.925 262.135 363.584 262.135 363.184V360.592H263.039V363.048C263.039 363.443 263.137 363.747 263.335 363.96C263.532 364.168 263.801 364.272 264.143 364.272C264.484 364.272 264.753 364.168 264.951 363.96C265.153 363.747 265.255 363.443 265.255 363.048V360.592H266.167ZM271.33 362.688C271.33 362.853 271.319 363.003 271.298 363.136H267.93C267.957 363.488 268.087 363.771 268.322 363.984C268.557 364.197 268.845 364.304 269.186 364.304C269.677 364.304 270.023 364.099 270.226 363.688H271.21C271.077 364.093 270.834 364.427 270.482 364.688C270.135 364.944 269.703 365.072 269.186 365.072C268.765 365.072 268.386 364.979 268.05 364.792C267.719 364.6 267.458 364.333 267.266 363.992C267.079 363.645 266.986 363.245 266.986 362.792C266.986 362.339 267.077 361.941 267.258 361.6C267.445 361.253 267.703 360.987 268.034 360.8C268.37 360.613 268.754 360.52 269.186 360.52C269.602 360.52 269.973 360.611 270.298 360.792C270.623 360.973 270.877 361.229 271.058 361.56C271.239 361.885 271.33 362.261 271.33 362.688ZM270.378 362.4C270.373 362.064 270.253 361.795 270.018 361.592C269.783 361.389 269.493 361.288 269.146 361.288C268.831 361.288 268.562 361.389 268.338 361.592C268.114 361.789 267.981 362.059 267.938 362.4H270.378Z" fill="#4F4F4F"/>
<path d="M318.075 359.44L316.427 365H315.395L314.227 360.792L312.987 365L311.963 365.008L310.387 359.44H311.355L312.507 363.968L313.755 359.44H314.779L315.939 363.944L317.099 359.44H318.075ZM322.788 362.688C322.788 362.853 322.777 363.003 322.756 363.136H319.388C319.414 363.488 319.545 363.771 319.78 363.984C320.014 364.197 320.302 364.304 320.644 364.304C321.134 364.304 321.481 364.099 321.684 363.688H322.668C322.534 364.093 322.292 364.427 321.94 364.688C321.593 364.944 321.161 365.072 320.644 365.072C320.222 365.072 319.844 364.979 319.508 364.792C319.177 364.6 318.916 364.333 318.724 363.992C318.537 363.645 318.444 363.245 318.444 362.792C318.444 362.339 318.534 361.941 318.716 361.6C318.902 361.253 319.161 360.987 319.492 360.8C319.828 360.613 320.212 360.52 320.644 360.52C321.06 360.52 321.43 360.611 321.756 360.792C322.081 360.973 322.334 361.229 322.516 361.56C322.697 361.885 322.788 362.261 322.788 362.688ZM321.836 362.4C321.83 362.064 321.71 361.795 321.476 361.592C321.241 361.389 320.95 361.288 320.604 361.288C320.289 361.288 320.02 361.389 319.796 361.592C319.572 361.789 319.438 362.059 319.396 362.4H321.836ZM323.301 362.776C323.301 362.333 323.392 361.941 323.573 361.6C323.76 361.259 324.01 360.995 324.325 360.808C324.645 360.616 325 360.52 325.389 360.52C325.677 360.52 325.96 360.584 326.237 360.712C326.52 360.835 326.744 361 326.909 361.208V359.08H327.829V365H326.909V364.336C326.76 364.549 326.552 364.725 326.285 364.864C326.024 365.003 325.722 365.072 325.381 365.072C324.997 365.072 324.645 364.976 324.325 364.784C324.01 364.587 323.76 364.315 323.573 363.968C323.392 363.616 323.301 363.219 323.301 362.776ZM326.909 362.792C326.909 362.488 326.845 362.224 326.717 362C326.594 361.776 326.432 361.605 326.229 361.488C326.026 361.371 325.808 361.312 325.573 361.312C325.338 361.312 325.12 361.371 324.917 361.488C324.714 361.6 324.549 361.768 324.421 361.992C324.298 362.211 324.237 362.472 324.237 362.776C324.237 363.08 324.298 363.347 324.421 363.576C324.549 363.805 324.714 363.981 324.917 364.104C325.125 364.221 325.344 364.28 325.573 364.28C325.808 364.28 326.026 364.221 326.229 364.104C326.432 363.987 326.594 363.816 326.717 363.592C326.845 363.363 326.909 363.096 326.909 362.792Z" fill="#4F4F4F"/>
<path d="M369.648 359.44V360.184H368.168V365H367.256V360.184H365.768V359.44H369.648ZM372.771 360.52C373.107 360.52 373.406 360.592 373.667 360.736C373.934 360.88 374.142 361.093 374.291 361.376C374.446 361.659 374.523 362 374.523 362.4V365H373.619V362.536C373.619 362.141 373.521 361.84 373.323 361.632C373.126 361.419 372.857 361.312 372.515 361.312C372.174 361.312 371.902 361.419 371.699 361.632C371.502 361.84 371.403 362.141 371.403 362.536V365H370.491V359.08H371.403V361.104C371.558 360.917 371.753 360.773 371.987 360.672C372.227 360.571 372.489 360.52 372.771 360.52ZM379.599 360.592V365H378.687V364.48C378.543 364.661 378.353 364.805 378.119 364.912C377.889 365.013 377.644 365.064 377.383 365.064C377.036 365.064 376.724 364.992 376.447 364.848C376.175 364.704 375.959 364.491 375.799 364.208C375.644 363.925 375.567 363.584 375.567 363.184V360.592H376.471V363.048C376.471 363.443 376.569 363.747 376.767 363.96C376.964 364.168 377.233 364.272 377.575 364.272C377.916 364.272 378.185 364.168 378.383 363.96C378.585 363.747 378.687 363.443 378.687 363.048V360.592H379.599Z" fill="#4F4F4F"/>
<path d="M426.672 359.44V360.184H424.312V361.824H426.152V362.568H424.312V365H423.4V359.44H426.672ZM428.349 361.232C428.483 361.008 428.659 360.835 428.877 360.712C429.101 360.584 429.365 360.52 429.669 360.52V361.464H429.437C429.08 361.464 428.808 361.555 428.621 361.736C428.44 361.917 428.349 362.232 428.349 362.68V365H427.437V360.592H428.349V361.232ZM430.892 360.008C430.726 360.008 430.588 359.952 430.476 359.84C430.364 359.728 430.308 359.589 430.308 359.424C430.308 359.259 430.364 359.12 430.476 359.008C430.588 358.896 430.726 358.84 430.892 358.84C431.052 358.84 431.188 358.896 431.3 359.008C431.412 359.12 431.468 359.259 431.468 359.424C431.468 359.589 431.412 359.728 431.3 359.84C431.188 359.952 431.052 360.008 430.892 360.008ZM431.34 360.592V365H430.428V360.592H431.34Z" fill="#4F4F4F"/>
<path d="M477.267 365.056C476.893 365.056 476.557 364.992 476.259 364.864C475.96 364.731 475.725 364.544 475.555 364.304C475.384 364.064 475.299 363.784 475.299 363.464H476.275C476.296 363.704 476.389 363.901 476.555 364.056C476.725 364.211 476.963 364.288 477.267 364.288C477.581 364.288 477.827 364.213 478.003 364.064C478.179 363.909 478.267 363.712 478.267 363.472C478.267 363.285 478.211 363.133 478.099 363.016C477.992 362.899 477.856 362.808 477.691 362.744C477.531 362.68 477.307 362.611 477.019 362.536C476.656 362.44 476.36 362.344 476.131 362.248C475.907 362.147 475.715 361.992 475.555 361.784C475.395 361.576 475.315 361.299 475.315 360.952C475.315 360.632 475.395 360.352 475.555 360.112C475.715 359.872 475.939 359.688 476.227 359.56C476.515 359.432 476.848 359.368 477.227 359.368C477.765 359.368 478.205 359.504 478.547 359.776C478.893 360.043 479.085 360.411 479.123 360.88H478.115C478.099 360.677 478.003 360.504 477.827 360.36C477.651 360.216 477.419 360.144 477.131 360.144C476.869 360.144 476.656 360.211 476.491 360.344C476.325 360.477 476.243 360.669 476.243 360.92C476.243 361.091 476.293 361.232 476.395 361.344C476.501 361.451 476.635 361.536 476.795 361.6C476.955 361.664 477.173 361.733 477.451 361.808C477.819 361.909 478.117 362.011 478.347 362.112C478.581 362.213 478.779 362.371 478.939 362.584C479.104 362.792 479.187 363.072 479.187 363.424C479.187 363.707 479.109 363.973 478.955 364.224C478.805 364.475 478.584 364.677 478.291 364.832C478.003 364.981 477.661 365.056 477.267 365.056ZM479.879 362.776C479.879 362.333 479.97 361.941 480.151 361.6C480.338 361.259 480.588 360.995 480.903 360.808C481.223 360.616 481.575 360.52 481.959 360.52C482.306 360.52 482.607 360.589 482.863 360.728C483.124 360.861 483.332 361.029 483.487 361.232V360.592H484.407V365H483.487V364.344C483.332 364.552 483.122 364.725 482.855 364.864C482.588 365.003 482.284 365.072 481.943 365.072C481.564 365.072 481.218 364.976 480.903 364.784C480.588 364.587 480.338 364.315 480.151 363.968C479.97 363.616 479.879 363.219 479.879 362.776ZM483.487 362.792C483.487 362.488 483.423 362.224 483.295 362C483.172 361.776 483.01 361.605 482.807 361.488C482.604 361.371 482.386 361.312 482.151 361.312C481.916 361.312 481.698 361.371 481.495 361.488C481.292 361.6 481.127 361.768 480.999 361.992C480.876 362.211 480.815 362.472 480.815 362.776C480.815 363.08 480.876 363.347 480.999 363.576C481.127 363.805 481.292 363.981 481.495 364.104C481.703 364.221 481.922 364.28 482.151 364.28C482.386 364.28 482.604 364.221 482.807 364.104C483.01 363.987 483.172 363.816 483.295 363.592C483.423 363.363 483.487 363.096 483.487 362.792ZM486.589 361.336V363.776C486.589 363.941 486.626 364.061 486.701 364.136C486.781 364.205 486.914 364.24 487.101 364.24H487.661V365H486.941C486.53 365 486.215 364.904 485.997 364.712C485.778 364.52 485.669 364.208 485.669 363.776V361.336H485.149V360.592H485.669V359.496H486.589V360.592H487.661V361.336H486.589Z" fill="#4F4F4F"/>
<path d="M530.363 365.056C529.99 365.056 529.654 364.992 529.355 364.864C529.056 364.731 528.822 364.544 528.651 364.304C528.48 364.064 528.395 363.784 528.395 363.464H529.371C529.392 363.704 529.486 363.901 529.651 364.056C529.822 364.211 530.059 364.288 530.363 364.288C530.678 364.288 530.923 364.213 531.099 364.064C531.275 363.909 531.363 363.712 531.363 363.472C531.363 363.285 531.307 363.133 531.195 363.016C531.088 362.899 530.952 362.808 530.787 362.744C530.627 362.68 530.403 362.611 530.115 362.536C529.752 362.44 529.456 362.344 529.227 362.248C529.003 362.147 528.811 361.992 528.651 361.784C528.491 361.576 528.411 361.299 528.411 360.952C528.411 360.632 528.491 360.352 528.651 360.112C528.811 359.872 529.035 359.688 529.323 359.56C529.611 359.432 529.944 359.368 530.323 359.368C530.862 359.368 531.302 359.504 531.643 359.776C531.99 360.043 532.182 360.411 532.219 360.88H531.211C531.195 360.677 531.099 360.504 530.923 360.36C530.747 360.216 530.515 360.144 530.227 360.144C529.966 360.144 529.752 360.211 529.587 360.344C529.422 360.477 529.339 360.669 529.339 360.92C529.339 361.091 529.39 361.232 529.491 361.344C529.598 361.451 529.731 361.536 529.891 361.6C530.051 361.664 530.27 361.733 530.547 361.808C530.915 361.909 531.214 362.011 531.443 362.112C531.678 362.213 531.875 362.371 532.035 362.584C532.2 362.792 532.283 363.072 532.283 363.424C532.283 363.707 532.206 363.973 532.051 364.224C531.902 364.475 531.68 364.677 531.387 364.832C531.099 364.981 530.758 365.056 530.363 365.056ZM537.271 360.592V365H536.359V364.48C536.215 364.661 536.026 364.805 535.791 364.912C535.562 365.013 535.317 365.064 535.055 365.064C534.709 365.064 534.397 364.992 534.119 364.848C533.847 364.704 533.631 364.491 533.471 364.208C533.317 363.925 533.239 363.584 533.239 363.184V360.592H534.143V363.048C534.143 363.443 534.242 363.747 534.439 363.96C534.637 364.168 534.906 364.272 535.247 364.272C535.589 364.272 535.858 364.168 536.055 363.96C536.258 363.747 536.359 363.443 536.359 363.048V360.592H537.271ZM540.619 360.52C540.965 360.52 541.275 360.592 541.547 360.736C541.824 360.88 542.04 361.093 542.195 361.376C542.349 361.659 542.427 362 542.427 362.4V365H541.523V362.536C541.523 362.141 541.424 361.84 541.227 361.632C541.029 361.419 540.76 361.312 540.419 361.312C540.077 361.312 539.805 361.419 539.603 361.632C539.405 361.84 539.307 362.141 539.307 362.536V365H538.395V360.592H539.307V361.096C539.456 360.915 539.645 360.773 539.875 360.672C540.109 360.571 540.357 360.52 540.619 360.52Z" fill="#4F4F4F"/>
<g filter="url(#filter1_d_2142_3786)">
<rect x="183" y="124" width="50" height="241" rx="8" fill="#370F70"/>
</g>
<rect x="249.705" y="165" width="32.9199" height="181" rx="8" fill="#FCD462"/>
<rect x="303.864" y="194" width="32.9199" height="152" rx="8" fill="#FCD462"/>
<rect x="358.022" y="235" width="32.9199" height="111" rx="8" fill="#FCD462"/>
<rect x="412.181" y="178" width="32.9199" height="168" rx="8" fill="#FCD462"/>
<rect x="466.339" y="178" width="32.9199" height="168" rx="8" fill="#FCD462"/>
<rect x="520.498" y="178" width="32.9199" height="168" rx="8" fill="#FCD462"/>
<path d="M93.0197 136.992V147H91.7551V138.571L89.2053 139.501V138.359L92.8215 136.992H93.0197ZM103.26 145.961V147H96.7453V146.091L100.006 142.461C100.407 142.014 100.717 141.636 100.936 141.326C101.159 141.012 101.314 140.731 101.401 140.485C101.492 140.235 101.537 139.979 101.537 139.72C101.537 139.392 101.469 139.095 101.332 138.831C101.2 138.562 101.004 138.348 100.744 138.188C100.485 138.029 100.17 137.949 99.801 137.949C99.3589 137.949 98.9898 138.036 98.6936 138.209C98.4019 138.378 98.1832 138.615 98.0373 138.92C97.8915 139.225 97.8186 139.576 97.8186 139.973H96.5539C96.5539 139.412 96.677 138.899 96.9231 138.435C97.1692 137.97 97.5337 137.601 98.0168 137.327C98.4999 137.049 99.0946 136.91 99.801 136.91C100.43 136.91 100.968 137.022 101.414 137.245C101.861 137.464 102.203 137.774 102.44 138.175C102.681 138.571 102.802 139.036 102.802 139.569C102.802 139.861 102.752 140.157 102.652 140.458C102.556 140.754 102.421 141.05 102.248 141.347C102.08 141.643 101.881 141.935 101.654 142.222C101.43 142.509 101.191 142.791 100.936 143.069L98.2697 145.961H103.26ZM106.022 136.5V147H104.75V136.5H106.022ZM110.54 139.604L107.314 143.056L105.509 144.929L105.406 143.582L106.698 142.037L108.995 139.604H110.54ZM109.385 147L106.746 143.473L107.403 142.345L110.875 147H109.385Z" fill="#2B2B2B"/>
<path d="M99.0767 185.307C99.0767 185.913 98.9354 186.428 98.6528 186.852C98.3748 187.271 97.9966 187.59 97.5181 187.809C97.0441 188.027 96.5086 188.137 95.9116 188.137C95.3146 188.137 94.7769 188.027 94.2983 187.809C93.8198 187.59 93.4416 187.271 93.1636 186.852C92.8856 186.428 92.7466 185.913 92.7466 185.307C92.7466 184.91 92.8218 184.548 92.9722 184.22C93.1271 183.887 93.3436 183.598 93.6216 183.352C93.9041 183.105 94.2368 182.916 94.6196 182.784C95.007 182.647 95.4331 182.579 95.8979 182.579C96.5086 182.579 97.0532 182.698 97.5317 182.935C98.0103 183.167 98.3862 183.488 98.6597 183.898C98.9377 184.309 99.0767 184.778 99.0767 185.307ZM97.8052 185.279C97.8052 184.91 97.7254 184.584 97.5659 184.302C97.4064 184.015 97.1831 183.791 96.896 183.632C96.6089 183.472 96.2762 183.393 95.8979 183.393C95.5106 183.393 95.1756 183.472 94.8931 183.632C94.6151 183.791 94.3986 184.015 94.2437 184.302C94.0887 184.584 94.0112 184.91 94.0112 185.279C94.0112 185.662 94.0864 185.99 94.2368 186.264C94.3918 186.533 94.6105 186.74 94.8931 186.886C95.1802 187.027 95.5197 187.098 95.9116 187.098C96.3035 187.098 96.6408 187.027 96.9233 186.886C97.2059 186.74 97.4224 186.533 97.5728 186.264C97.7277 185.99 97.8052 185.662 97.8052 185.279ZM98.8442 180.638C98.8442 181.121 98.7166 181.556 98.4614 181.943C98.2062 182.331 97.8576 182.636 97.4155 182.859C96.9735 183.083 96.4722 183.194 95.9116 183.194C95.342 183.194 94.8338 183.083 94.3872 182.859C93.9451 182.636 93.5988 182.331 93.3481 181.943C93.0975 181.556 92.9722 181.121 92.9722 180.638C92.9722 180.059 93.0975 179.567 93.3481 179.161C93.6034 178.756 93.952 178.446 94.394 178.231C94.8361 178.017 95.3397 177.91 95.9048 177.91C96.4744 177.91 96.9803 178.017 97.4224 178.231C97.8644 178.446 98.2108 178.756 98.4614 179.161C98.7166 179.567 98.8442 180.059 98.8442 180.638ZM97.5796 180.658C97.5796 180.326 97.509 180.032 97.3677 179.776C97.2264 179.521 97.0304 179.321 96.7798 179.175C96.5291 179.024 96.2375 178.949 95.9048 178.949C95.5721 178.949 95.2804 179.02 95.0298 179.161C94.7837 179.298 94.59 179.494 94.4487 179.749C94.312 180.004 94.2437 180.307 94.2437 180.658C94.2437 181 94.312 181.299 94.4487 181.554C94.59 181.809 94.786 182.007 95.0366 182.148C95.2873 182.29 95.5789 182.36 95.9116 182.36C96.2443 182.36 96.5337 182.29 96.7798 182.148C97.0304 182.007 97.2264 181.809 97.3677 181.554C97.509 181.299 97.5796 181 97.5796 180.658ZM102.084 177.5V188H100.813V177.5H102.084ZM106.603 180.604L103.376 184.056L101.572 185.929L101.469 184.582L102.761 183.037L105.058 180.604H106.603ZM105.448 188L102.809 184.473L103.465 183.345L106.938 188H105.448Z" fill="#2B2B2B"/>
<path d="M97.6548 219.033H97.7642V220.106H97.6548C96.9849 220.106 96.4243 220.216 95.9731 220.435C95.522 220.649 95.1642 220.938 94.8999 221.303C94.6356 221.663 94.4442 222.068 94.3257 222.52C94.2118 222.971 94.1548 223.429 94.1548 223.894V225.356C94.1548 225.799 94.2072 226.19 94.312 226.532C94.4168 226.869 94.5604 227.154 94.7427 227.387C94.925 227.619 95.13 227.795 95.3579 227.913C95.5903 228.032 95.8319 228.091 96.0825 228.091C96.3742 228.091 96.634 228.036 96.8618 227.927C97.0897 227.813 97.2811 227.656 97.436 227.455C97.5955 227.25 97.7163 227.008 97.7983 226.73C97.8804 226.452 97.9214 226.147 97.9214 225.814C97.9214 225.518 97.8849 225.233 97.812 224.96C97.7391 224.682 97.6274 224.436 97.4771 224.222C97.3267 224.003 97.1375 223.832 96.9097 223.709C96.6864 223.581 96.4198 223.518 96.1099 223.518C95.759 223.518 95.4308 223.604 95.1255 223.777C94.8247 223.946 94.5763 224.169 94.3804 224.447C94.189 224.721 94.0796 225.019 94.0522 225.343L93.3823 225.336C93.4461 224.826 93.5646 224.39 93.7378 224.03C93.9155 223.666 94.1343 223.369 94.394 223.142C94.6584 222.909 94.9523 222.741 95.2759 222.636C95.604 222.526 95.9504 222.472 96.3149 222.472C96.8117 222.472 97.2401 222.565 97.6001 222.752C97.9601 222.939 98.2563 223.189 98.4888 223.504C98.7212 223.814 98.8921 224.165 99.0015 224.557C99.1154 224.944 99.1724 225.343 99.1724 225.753C99.1724 226.222 99.1063 226.662 98.9741 227.072C98.842 227.482 98.6437 227.842 98.3794 228.152C98.1196 228.462 97.7983 228.704 97.4155 228.877C97.0327 229.05 96.5884 229.137 96.0825 229.137C95.5448 229.137 95.0754 229.027 94.6743 228.809C94.2733 228.585 93.9406 228.289 93.6763 227.92C93.4119 227.551 93.2137 227.141 93.0815 226.689C92.9494 226.238 92.8833 225.78 92.8833 225.315V224.721C92.8833 224.019 92.9539 223.331 93.0952 222.656C93.2365 221.982 93.4803 221.371 93.8267 220.824C94.1776 220.277 94.6629 219.842 95.2827 219.519C95.9025 219.195 96.6932 219.033 97.6548 219.033ZM102.084 218.5V229H100.813V218.5H102.084ZM106.603 221.604L103.376 225.056L101.572 226.929L101.469 225.582L102.761 224.037L105.058 221.604H106.603ZM105.448 229L102.809 225.473L103.465 224.345L106.938 229H105.448Z" fill="#2B2B2B"/>
<path d="M99.5278 266.65V267.689H92.3364V266.944L96.7935 260.047H97.8257L96.7183 262.043L93.772 266.65H99.5278ZM98.1401 260.047V270H96.8755V260.047H98.1401ZM102.084 259.5V270H100.813V259.5H102.084ZM106.603 262.604L103.376 266.056L101.572 267.929L101.469 266.582L102.761 265.037L105.058 262.604H106.603ZM105.448 270L102.809 266.473L103.465 265.345L106.938 270H105.448Z" fill="#2B2B2B"/>
<path d="M99.3228 309.961V311H92.8081V310.091L96.0688 306.461C96.4699 306.014 96.7798 305.636 96.9985 305.326C97.2218 305.012 97.3768 304.731 97.4634 304.485C97.5545 304.235 97.6001 303.979 97.6001 303.72C97.6001 303.392 97.5317 303.095 97.395 302.831C97.2629 302.562 97.0669 302.348 96.8071 302.188C96.5474 302.029 96.2329 301.949 95.8638 301.949C95.4217 301.949 95.0526 302.036 94.7563 302.209C94.4647 302.378 94.2459 302.615 94.1001 302.92C93.9543 303.225 93.8813 303.576 93.8813 303.973H92.6167C92.6167 303.412 92.7397 302.899 92.9858 302.435C93.2319 301.97 93.5965 301.601 94.0796 301.327C94.5627 301.049 95.1574 300.91 95.8638 300.91C96.4927 300.91 97.0304 301.022 97.4771 301.245C97.9237 301.464 98.2655 301.774 98.5024 302.175C98.744 302.571 98.8647 303.036 98.8647 303.569C98.8647 303.861 98.8146 304.157 98.7144 304.458C98.6187 304.754 98.4842 305.05 98.311 305.347C98.1424 305.643 97.9442 305.935 97.7163 306.222C97.493 306.509 97.2537 306.791 96.9985 307.069L94.3325 309.961H99.3228ZM102.084 300.5V311H100.813V300.5H102.084ZM106.603 303.604L103.376 307.056L101.572 308.929L101.469 307.582L102.761 306.037L105.058 303.604H106.603ZM105.448 311L102.809 307.473L103.465 306.345L106.938 311H105.448Z" fill="#2B2B2B"/>
<path d="M102.66 346.23V347.748C102.66 348.564 102.587 349.252 102.441 349.812C102.295 350.373 102.085 350.824 101.812 351.166C101.539 351.508 101.208 351.756 100.821 351.911C100.438 352.062 100.005 352.137 99.522 352.137C99.1392 352.137 98.786 352.089 98.4624 351.993C98.1388 351.897 97.8472 351.745 97.5874 351.535C97.3322 351.321 97.1134 351.043 96.9312 350.701C96.7489 350.359 96.6099 349.945 96.5142 349.457C96.4185 348.969 96.3706 348.4 96.3706 347.748V346.23C96.3706 345.415 96.4435 344.731 96.5894 344.18C96.7397 343.628 96.9517 343.186 97.2251 342.854C97.4985 342.516 97.8267 342.275 98.2095 342.129C98.5968 341.983 99.0298 341.91 99.5083 341.91C99.8957 341.91 100.251 341.958 100.575 342.054C100.903 342.145 101.194 342.293 101.45 342.498C101.705 342.699 101.921 342.967 102.099 343.305C102.281 343.637 102.42 344.045 102.516 344.528C102.612 345.011 102.66 345.579 102.66 346.23ZM101.388 347.953V346.019C101.388 345.572 101.361 345.18 101.306 344.843C101.256 344.501 101.181 344.209 101.081 343.968C100.98 343.726 100.853 343.53 100.698 343.38C100.547 343.229 100.372 343.12 100.171 343.052C99.9754 342.979 99.7544 342.942 99.5083 342.942C99.2075 342.942 98.9409 342.999 98.7085 343.113C98.4761 343.223 98.2801 343.398 98.1206 343.64C97.9657 343.881 97.8472 344.198 97.7651 344.59C97.6831 344.982 97.6421 345.458 97.6421 346.019V347.953C97.6421 348.4 97.6672 348.794 97.7173 349.136C97.772 349.478 97.8517 349.774 97.9565 350.024C98.0614 350.271 98.189 350.473 98.3394 350.633C98.4897 350.792 98.6629 350.911 98.8589 350.988C99.0594 351.061 99.2804 351.098 99.522 351.098C99.8319 351.098 100.103 351.038 100.335 350.92C100.568 350.801 100.762 350.617 100.917 350.366C101.076 350.111 101.194 349.785 101.272 349.389C101.349 348.988 101.388 348.509 101.388 347.953Z" fill="#2B2B2B"/>
<defs>
<filter id="filter0_d_2142_3786" x="0" y="0" width="682" height="500" filterUnits="userSpaceOnUse" color-interpolation-filters="sRGB">
<feFlood flood-opacity="0" result="BackgroundImageFix"/>
<feColorMatrix in="SourceAlpha" type="matrix" values="0 0 0 0 0 0 0 0 0 0 0 0 0 0 0 0 0 0 127 0" result="hardAlpha"/>
<feOffset dy="24"/>
<feGaussianBlur stdDeviation="16"/>
<feColorMatrix type="matrix" values="0 0 0 0 0 0 0 0 0 0 0 0 0 0 0 0 0 0 0.04 0"/>
<feBlend mode="normal" in2="BackgroundImageFix" result="effect1_dropShadow_2142_3786"/>
<feBlend mode="normal" in="SourceGraphic" in2="effect1_dropShadow_2142_3786" result="shape"/>
</filter>
<filter id="filter1_d_2142_3786" x="157" y="108" width="102" height="293" filterUnits="userSpaceOnUse" color-interpolation-filters="sRGB">
<feFlood flood-opacity="0" result="BackgroundImageFix"/>
<feColorMatrix in="SourceAlpha" type="matrix" values="0 0 0 0 0 0 0 0 0 0 0 0 0 0 0 0 0 0 127 0" result="hardAlpha"/>
<feOffset dy="10"/>
<feGaussianBlur stdDeviation="13"/>
<feComposite in2="hardAlpha" operator="out"/>
<feColorMatrix type="matrix" values="0 0 0 0 0.505882 0 0 0 0 0.509804 0 0 0 0 0.52549 0 0 0 0.91 0"/>
<feBlend mode="normal" in2="BackgroundImageFix" result="effect1_dropShadow_2142_3786"/>
<feBlend mode="normal" in="SourceGraphic" in2="effect1_dropShadow_2142_3786" result="shape"/>
</filter>
</defs>
</svg>
