<svg width="32" height="32" viewBox="0 0 32 32" fill="none" xmlns="http://www.w3.org/2000/svg">
<path d="M27.5999 7.70034L24.2219 3.33301H7.77795L4.38928 7.70034" stroke="#46266E" stroke-width="2" stroke-linecap="round" stroke-linejoin="round"/>
<path d="M4 8.66634C4 8.31272 4.14048 7.97358 4.39052 7.72353C4.64057 7.47348 4.97971 7.33301 5.33333 7.33301H26.6667C27.0203 7.33301 27.3594 7.47348 27.6095 7.72353C27.8595 7.97358 28 8.31272 28 8.66634V26.6663C28 27.1968 27.7893 27.7055 27.4142 28.0806C27.0391 28.4556 26.5304 28.6663 26 28.6663H6C5.46957 28.6663 4.96086 28.4556 4.58579 28.0806C4.21071 27.7055 4 27.1968 4 26.6663V8.66634Z" stroke="#46266E" stroke-width="2" stroke-linejoin="round"/>
<path d="M21.3333 17.9993L16 23.3327L10.6666 17.9993M15.9946 12.666V23.3327" stroke="#46266E" stroke-width="2" stroke-linecap="round" stroke-linejoin="round"/>
</svg>
