<svg width="21" height="19" viewBox="0 0 21 19" fill="none" xmlns="http://www.w3.org/2000/svg">
<path d="M10.7319 6.32344C8.89563 6.32344 7.39712 7.7451 7.39712 9.48718C7.39712 11.2293 8.89563 12.6509 10.7319 12.6509C12.5681 12.6509 14.0666 11.2293 14.0666 9.48718C14.0666 7.7451 12.5681 6.32344 10.7319 6.32344ZM20.7336 9.48718C20.7336 8.17706 20.7461 6.87881 20.6686 5.57107C20.591 4.0521 20.2258 2.70401 19.055 1.59326C17.8817 0.480132 16.4632 0.13599 14.8622 0.0624143C13.4812 -0.0111611 12.1128 0.000705953 10.7344 0.000705953C9.35344 0.000705953 7.98502 -0.0111611 6.60659 0.0624143C5.0055 0.13599 3.58454 0.482506 2.41375 1.59326C1.24046 2.70638 0.877715 4.0521 0.800163 5.57107C0.722611 6.88119 0.735119 8.17944 0.735119 9.48718C0.735119 10.7949 0.722611 12.0955 0.800163 13.4033C0.877715 14.9223 1.24296 16.2704 2.41375 17.3811C3.58705 18.4942 5.0055 18.8384 6.60659 18.9119C7.98752 18.9855 9.35594 18.9737 10.7344 18.9737C12.1153 18.9737 13.4837 18.9855 14.8622 18.9119C16.4632 18.8384 17.8842 18.4919 19.055 17.3811C20.2283 16.268 20.591 14.9223 20.6686 13.4033C20.7486 12.0955 20.7336 10.7973 20.7336 9.48718ZM10.7319 14.355C7.89245 14.355 5.60091 12.181 5.60091 9.48718C5.60091 6.79337 7.89245 4.61934 10.7319 4.61934C13.5713 4.61934 15.8628 6.79337 15.8628 9.48718C15.8628 12.181 13.5713 14.355 10.7319 14.355ZM16.073 5.55683C15.41 5.55683 14.8747 5.04892 14.8747 4.41997C14.8747 3.79102 15.41 3.28312 16.073 3.28312C16.7359 3.28312 17.2713 3.79102 17.2713 4.41997C17.2715 4.56932 17.2406 4.71724 17.1805 4.85525C17.1203 4.99327 17.0321 5.11867 16.9208 5.22427C16.8094 5.32988 16.6773 5.41361 16.5318 5.47068C16.3863 5.52774 16.2304 5.55702 16.073 5.55683Z" fill="black"/>
</svg>
