<svg width="200" height="64" viewBox="0 0 200 64" fill="none" xmlns="http://www.w3.org/2000/svg">
<rect x="0.5" y="0.5" width="199" height="63" rx="4.5" fill="#FAFAFA"/>
<path d="M42.5227 43.3002C43.1962 43.3844 43.8788 43.2464 44.4667 42.9072L56.9667 36.4072L53.3297 32.9072L42.5227 43.3002ZM41.4897 21.0002C41.1459 21.5302 40.9754 22.154 41.0017 22.7852V40.8402C40.9783 41.4553 41.1395 42.0634 41.4647 42.5862L52.4017 31.7822L41.4897 21.0002ZM57.7277 27.1852L45.1887 20.6852C44.6109 20.3554 43.9442 20.2155 43.2827 20.2852L54.0967 30.6782L57.7277 27.1852ZM58.6577 35.8852L62.2897 34.0382C64.3187 33.0082 64.3167 31.3232 62.2897 30.2942L58.6377 28.4432L54.6887 32.1532L58.6577 35.8852ZM84.5957 23.7322C83.9013 23.7383 83.2173 23.5639 82.6107 23.2262C82.0153 22.8984 81.5176 22.4184 81.1687 21.8352C80.8193 21.2378 80.6351 20.5582 80.6351 19.8662C80.6351 19.1741 80.8193 18.4945 81.1687 17.8972C81.5178 17.3143 82.0154 16.8347 82.6107 16.5072C83.2172 16.1691 83.9012 15.9944 84.5957 16.0002C85.1418 15.9952 85.6836 16.0971 86.1907 16.3002C86.6595 16.4837 87.0815 16.7696 87.4257 17.1372L86.6017 17.9432C86.3563 17.6752 86.0557 17.4636 85.7207 17.3232C85.3609 17.1749 84.9748 17.1011 84.5857 17.1062C84.1102 17.1035 83.6418 17.2208 83.2237 17.4472C82.8032 17.6725 82.4526 18.0087 82.2097 18.4192C81.9606 18.8608 81.8298 19.3592 81.8298 19.8662C81.8298 20.3732 81.9606 20.8716 82.2097 21.3132C82.4526 21.7237 82.8032 22.0598 83.2237 22.2852C83.7451 22.5821 84.3476 22.7051 84.9436 22.6364C85.5397 22.5677 86.0984 22.3109 86.5387 21.9032C86.7046 21.7386 86.84 21.546 86.9387 21.3342C87.0502 21.0993 87.1235 20.8482 87.1557 20.5902H84.5857V19.5562H88.2707C88.3064 19.7542 88.3242 19.955 88.3237 20.1562C88.3247 20.6134 88.2497 21.0676 88.1017 21.5002C87.9578 21.9244 87.7155 22.3085 87.3947 22.6212C87.0316 22.9916 86.5949 23.2818 86.1128 23.4732C85.6308 23.6645 85.1139 23.7528 84.5957 23.7322ZM91.9027 23.7322C91.4055 23.7402 90.9153 23.6153 90.4827 23.3702C90.0688 23.1342 89.7285 22.788 89.4997 22.3702C89.2602 21.9313 89.1383 21.438 89.1457 20.9382C89.142 20.4503 89.2599 19.9691 89.4887 19.5382C89.7095 19.1158 90.0396 18.7604 90.4447 18.5092C90.8634 18.2515 91.3471 18.119 91.8387 18.1272C92.3319 18.1146 92.8192 18.2363 93.2487 18.4792C93.6383 18.7044 93.9539 19.0384 94.1567 19.4402C94.3693 19.8669 94.4763 20.3385 94.4687 20.8152C94.4667 20.9365 94.456 21.0574 94.4367 21.1772H90.3097C90.3174 21.3921 90.3686 21.6032 90.4602 21.7978C90.5518 21.9923 90.6819 22.1663 90.8427 22.3092C91.1458 22.5717 91.5347 22.714 91.9357 22.7092C92.2377 22.7169 92.536 22.64 92.7967 22.4872C93.0394 22.3397 93.241 22.1333 93.3827 21.8872L94.3647 22.3412C94.1254 22.7606 93.7837 23.1125 93.3717 23.3642C92.9254 23.621 92.4163 23.7484 91.9017 23.7322H91.9027ZM93.2867 20.3112C93.2694 20.1156 93.2079 19.9264 93.1067 19.7582C92.9903 19.565 92.8246 19.4062 92.6267 19.2982C92.3854 19.1676 92.1138 19.1034 91.8397 19.1122C91.4956 19.102 91.1596 19.2175 90.8947 19.4372C90.6302 19.6658 90.4439 19.9714 90.3617 20.3112H93.2867ZM97.5737 23.6502C97.3434 23.6519 97.1146 23.6133 96.8977 23.5362C96.7067 23.4718 96.5305 23.3698 96.3797 23.2362C96.2248 23.0766 96.1045 22.8867 96.0264 22.6785C95.9483 22.4703 95.914 22.2482 95.9257 22.0262V19.3002H94.9867V18.3002H95.9257V16.8072H97.0877V18.2952H98.4017V19.2952H97.0917V21.7762C97.0702 21.9903 97.1306 22.2047 97.2607 22.3762C97.3296 22.4512 97.4152 22.509 97.5106 22.5449C97.6059 22.5809 97.7083 22.594 97.8097 22.5832C97.9172 22.5849 98.0243 22.569 98.1267 22.5362C98.2325 22.4994 98.3333 22.4493 98.4267 22.3872V23.4932C98.1565 23.6047 97.8658 23.6578 97.5737 23.6492V23.6502ZM102.642 17.5312C102.539 17.5334 102.437 17.5148 102.342 17.4767C102.247 17.4385 102.16 17.3816 102.088 17.3092C102.014 17.2391 101.956 17.1547 101.917 17.0612C101.86 16.9203 101.846 16.7658 101.876 16.6169C101.907 16.4681 101.98 16.3315 102.088 16.2242C102.237 16.0809 102.435 16.0008 102.642 16.0008C102.849 16.0008 103.048 16.0809 103.197 16.2242C103.269 16.295 103.326 16.3794 103.365 16.4726C103.404 16.5657 103.424 16.6657 103.424 16.7667C103.424 16.8677 103.404 16.9676 103.365 17.0608C103.326 17.1539 103.269 17.2384 103.197 17.3092C103.124 17.3814 103.038 17.4383 102.943 17.4762C102.847 17.514 102.745 17.5323 102.643 17.5302L102.642 17.5312ZM102.061 18.2962H103.223V23.5682H102.062L102.061 18.2962ZM106.824 23.6502C106.593 23.652 106.365 23.6134 106.148 23.5362C105.957 23.472 105.78 23.37 105.63 23.2362C105.475 23.0766 105.355 22.8867 105.276 22.6785C105.198 22.4703 105.164 22.2482 105.176 22.0262V19.3002H104.237V18.3002H105.176V16.8072H106.338V18.2952H107.647V19.2952H106.337V21.7762C106.315 21.9903 106.376 22.2047 106.506 22.3762C106.575 22.4512 106.66 22.5091 106.756 22.545C106.851 22.581 106.953 22.594 107.055 22.5832C107.162 22.5849 107.269 22.5691 107.371 22.5362C107.477 22.4995 107.577 22.4494 107.671 22.3872V23.4932C107.403 23.6037 107.114 23.6568 106.825 23.6492L106.824 23.6502ZM113.751 23.7332C113.241 23.7413 112.739 23.6147 112.294 23.3662C111.873 23.1292 111.527 22.7802 111.294 22.3582C111.058 21.9197 110.934 21.4296 110.934 20.9317C110.934 20.4338 111.058 19.9437 111.294 19.5052C111.527 19.0835 111.874 18.7349 112.294 18.4982C112.739 18.2496 113.241 18.123 113.751 18.1312C114.261 18.1229 114.765 18.2513 115.209 18.5032C115.628 18.743 115.974 19.0934 116.209 19.5162C116.445 19.9528 116.568 20.4413 116.568 20.9377C116.568 21.434 116.445 21.9225 116.209 22.3592C115.975 22.7812 115.629 23.1302 115.209 23.3672C114.764 23.6149 114.261 23.7409 113.752 23.7322L113.751 23.7332ZM113.751 22.6892C114.039 22.6912 114.323 22.6181 114.575 22.4772C114.83 22.334 115.04 22.1228 115.182 21.8672C115.339 21.581 115.417 21.2585 115.41 20.9322C115.418 20.6067 115.339 20.285 115.182 20.0002C115.038 19.7484 114.828 19.5409 114.575 19.4002C114.322 19.2611 114.039 19.1881 113.751 19.1881C113.462 19.1881 113.179 19.2611 112.927 19.4002C112.673 19.541 112.463 19.7485 112.32 20.0002C112.163 20.2848 112.084 20.6062 112.093 20.9312C112.085 21.2574 112.163 21.5799 112.32 21.8662C112.462 22.1218 112.672 22.333 112.927 22.4762C113.179 22.6169 113.463 22.69 113.752 22.6882L113.751 22.6892ZM117.532 18.3002H118.64V18.9922H118.693C118.864 18.7292 119.103 18.5169 119.384 18.3772C119.684 18.2167 120.019 18.1332 120.36 18.1342C120.635 18.1152 120.91 18.1557 121.168 18.2528C121.426 18.35 121.66 18.5015 121.854 18.6972C122.213 19.1251 122.397 19.6739 122.367 20.2322V23.5712H121.202V20.3832C121.216 20.2182 121.196 20.052 121.143 19.8952C121.089 19.7385 121.003 19.5947 120.891 19.4732C120.652 19.2687 120.344 19.1647 120.031 19.1832C119.781 19.1793 119.536 19.2534 119.331 19.3952C119.126 19.5379 118.962 19.7321 118.856 19.9582C118.743 20.1938 118.685 20.4519 118.687 20.7132V23.5652H117.532V18.2952V18.3002ZM80.4597 31.2152H85.0967C85.8868 31.2054 86.6681 31.3815 87.3777 31.7292C88.0404 32.0497 88.601 32.5483 88.9967 33.1692C89.3934 33.8028 89.598 34.5377 89.5857 35.2852C89.5983 36.0299 89.3969 36.7626 89.0056 37.3962C88.6142 38.0299 88.0492 38.538 87.3777 38.8602C86.6679 39.2072 85.8867 39.383 85.0967 39.3732H82.9427V44.1102H80.4587V31.2152H80.4597ZM85.1697 37.0682C85.4331 37.083 85.6968 37.0444 85.945 36.9547C86.1931 36.865 86.4206 36.726 86.6137 36.5462C86.7828 36.3831 86.9166 36.1871 87.0067 35.9701C87.0969 35.7532 87.1414 35.5201 87.1377 35.2852C87.142 35.0516 87.0976 34.8196 87.0074 34.604C86.9172 34.3885 86.7831 34.1941 86.6137 34.0332C86.4192 33.8558 86.1914 33.7191 85.9434 33.631C85.6954 33.5429 85.4324 33.5052 85.1697 33.5202H82.9427V37.0682H85.1697ZM90.6907 31.2152H93.1017V44.1102H90.6917L90.6907 31.2152ZM97.5017 44.4002C96.607 44.4354 95.7323 44.1294 95.0547 43.5442C94.7404 43.2633 94.4921 42.9166 94.3274 42.5287C94.1626 42.1408 94.0856 41.7213 94.1017 41.3002C94.0924 40.7205 94.2675 40.1529 94.6017 39.6792C94.9467 39.2002 95.4178 38.8264 95.9627 38.5992C96.5674 38.3414 97.2193 38.2127 97.8767 38.2212C98.7235 38.1999 99.5665 38.3404 100.361 38.6352V38.2352C100.367 38 100.318 37.7667 100.217 37.5541C100.117 37.3415 99.9674 37.1555 99.7817 37.0112C99.3334 36.6792 98.7836 36.5137 98.2267 36.5432C97.783 36.5444 97.3456 36.647 96.9477 36.8432C96.5547 37.0277 96.2064 37.2952 95.9267 37.6272L94.3807 36.4382C94.8347 35.8621 95.4218 35.405 96.0917 35.1062C96.7974 34.7896 97.5632 34.6296 98.3367 34.6372C99.5101 34.5548 100.674 34.9005 101.612 35.6102C101.999 35.9711 102.3 36.4137 102.494 36.9058C102.689 37.398 102.771 37.9273 102.735 38.4552V44.1102H100.353V43.1732H100.202C99.9021 43.5478 99.5216 43.8496 99.0887 44.0562C98.5935 44.2924 98.0502 44.4102 97.5017 44.4002ZM98.0717 42.5632C98.3681 42.5772 98.6643 42.5306 98.942 42.426C99.2197 42.3215 99.4732 42.1613 99.6868 41.9553C99.9004 41.7493 100.07 41.5018 100.184 41.228C100.299 40.9542 100.356 40.6599 100.353 40.3632C99.7358 40.077 99.0637 39.9296 98.3837 39.9312C97.133 39.9312 96.5077 40.3875 96.5077 41.3002C96.5019 41.4721 96.5348 41.6432 96.6041 41.8007C96.6733 41.9582 96.777 42.0982 96.9077 42.2102C97.2395 42.4652 97.6531 42.59 98.0707 42.5612L98.0717 42.5632ZM106.942 43.6802L102.987 34.9272H105.728L108.157 40.6362H108.302L110.639 34.9272H113.326L107.53 48.0002H104.936L106.942 43.6802ZM121.205 44.4002C120.111 44.4188 119.04 44.0842 118.151 43.4462C117.246 42.7798 116.592 41.829 116.293 40.7462L118.63 39.8462C118.779 40.4709 119.105 41.0397 119.568 41.4852C120.019 41.8969 120.613 42.1165 121.224 42.0972C121.726 42.1129 122.221 41.9732 122.641 41.6972C122.827 41.576 122.98 41.4087 123.083 41.2115C123.186 41.0142 123.237 40.7937 123.23 40.5712C123.234 40.3443 123.186 40.1195 123.088 39.9146C122.991 39.7098 122.847 39.5305 122.668 39.3912C122.055 38.9635 121.381 38.6327 120.668 38.4102L119.859 38.1212C119.043 37.8519 118.3 37.3989 117.688 36.7972C117.392 36.5054 117.159 36.1557 117.004 35.77C116.849 35.3842 116.775 34.9707 116.788 34.5552C116.782 33.9039 116.967 33.2651 117.321 32.7182C117.691 32.1469 118.214 31.6904 118.83 31.4002C119.519 31.0732 120.275 30.91 121.038 30.9232C122.042 30.8668 123.035 31.1558 123.853 31.7422C124.499 32.2327 124.991 32.8984 125.27 33.6602L123.08 34.5602C122.946 34.1649 122.7 33.8173 122.372 33.5602C121.999 33.2782 121.539 33.135 121.072 33.1552C120.599 33.1358 120.133 33.2649 119.738 33.5242C119.576 33.6271 119.442 33.7696 119.351 33.9383C119.259 34.107 119.212 34.2962 119.214 34.4882C119.215 34.6794 119.26 34.8677 119.347 35.038C119.434 35.2084 119.56 35.356 119.714 35.4692C120.211 35.8215 120.765 36.0863 121.352 36.2522L122.18 36.5222C123.163 36.8146 124.062 37.3386 124.802 38.0502C125.344 38.6847 125.662 39.4801 125.707 40.3135C125.752 41.1469 125.521 41.9719 125.051 42.6612C124.612 43.2415 124.024 43.6927 123.351 43.9672C122.67 44.2532 121.94 44.4005 121.202 44.4002H121.205ZM130.605 44.2562C130.167 44.2608 129.731 44.1908 129.317 44.0492C128.96 43.9323 128.634 43.7384 128.361 43.4812C128.062 43.1806 127.831 42.8202 127.682 42.4238C127.533 42.0274 127.469 41.6039 127.496 41.1812V36.9422H125.858V34.9252H127.502V32.3312H129.912V34.9252H132.212V36.9422H129.912V40.7422C129.894 40.9226 129.913 41.1046 129.967 41.2776C130.021 41.4506 130.108 41.6113 130.225 41.7502C130.343 41.8574 130.483 41.9384 130.636 41.988C130.788 42.0376 130.949 42.0547 131.108 42.0382C131.305 42.0442 131.502 42.0137 131.688 41.9482C131.895 41.8611 132.095 41.7588 132.288 41.6422V43.9422C131.752 44.1503 131.182 44.2561 130.607 44.2542L130.605 44.2562ZM137.617 44.4002C136.711 44.4161 135.817 44.1959 135.023 43.7612C134.281 43.3537 133.666 42.7491 133.247 42.0142C132.83 41.2505 132.612 40.3945 132.612 39.5247C132.612 38.6548 132.83 37.7989 133.247 37.0352C133.664 36.2964 134.279 35.6884 135.023 35.2792C135.82 34.8594 136.707 34.64 137.608 34.64C138.508 34.64 139.396 34.8594 140.193 35.2792C140.936 35.6882 141.551 36.2963 141.968 37.0352C142.384 37.7989 142.602 38.6548 142.602 39.5247C142.602 40.3945 142.384 41.2505 141.968 42.0142C141.548 42.7494 140.934 43.3543 140.193 43.7622C139.404 44.1953 138.516 44.4155 137.616 44.4012L137.617 44.4002ZM137.617 42.2212C138.065 42.2258 138.508 42.1153 138.902 41.9002C139.296 41.6821 139.621 41.3574 139.84 40.9632C140.081 40.522 140.202 40.0249 140.19 39.5222C140.2 39.0253 140.08 38.5344 139.84 38.0992C139.621 37.705 139.296 37.3802 138.902 37.1622C138.506 36.9493 138.063 36.8379 137.614 36.8379C137.164 36.8379 136.722 36.9493 136.326 37.1622C135.93 37.3815 135.602 37.7057 135.379 38.0992C135.132 38.5322 135.008 39.024 135.019 39.5222C135.009 40.0228 135.133 40.5169 135.379 40.9532C135.6 41.3503 135.928 41.6779 136.326 41.8992C136.722 42.1153 137.167 42.2255 137.619 42.2192L137.617 42.2212ZM143.506 34.9272H145.769V36.1502H145.917C146.17 35.6974 146.546 35.3257 147.002 35.0782C147.494 34.7956 148.054 34.6496 148.622 34.6552C149.023 34.6511 149.421 34.7188 149.799 34.8552V37.2142C149.525 37.1118 149.245 37.0247 148.962 36.9532C148.723 36.8975 148.479 36.87 148.235 36.8712C147.913 36.8579 147.593 36.9193 147.299 37.0507C147.005 37.182 146.746 37.3797 146.542 37.6282C146.112 38.17 145.891 38.8474 145.917 39.5382V44.1102H143.506V34.9262V34.9272ZM154.456 44.4002C153.575 44.4131 152.706 44.1956 151.935 43.7692C151.2 43.3624 150.592 42.7611 150.177 42.0312C149.762 41.2753 149.543 40.4272 149.542 39.5648C149.54 38.7025 149.755 37.8536 150.168 37.0962C150.576 36.354 151.174 35.7341 151.902 35.3002C152.646 34.8534 153.499 34.6225 154.367 34.6332C155.24 34.6097 156.103 34.821 156.867 35.2452C157.549 35.636 158.102 36.2184 158.458 36.9202C158.825 37.652 159.011 38.4614 159.001 39.2802C159.002 39.5452 158.983 39.8099 158.946 40.0722H151.902C151.978 40.7207 152.297 41.3162 152.795 41.7392C153.278 42.1207 153.879 42.3213 154.495 42.3062C154.993 42.3198 155.486 42.1985 155.921 41.9552C156.313 41.7275 156.64 41.4019 156.869 41.0102L158.819 41.9472C158.394 42.7234 157.761 43.3649 156.99 43.7986C156.219 44.2323 155.341 44.4407 154.458 44.4002H154.456ZM156.682 38.4002C156.65 38.0919 156.539 37.797 156.36 37.5442C156.156 37.251 155.884 37.011 155.569 36.8442C155.203 36.6514 154.795 36.5553 154.382 36.5652C153.845 36.553 153.32 36.73 152.901 37.0652C152.477 37.4142 152.166 37.8813 152.008 38.4072H156.682V38.4002Z" fill="#46266E"/>
<rect x="0.5" y="0.5" width="199" height="63" rx="4.5" stroke="#46266E"/>
</svg>
