<svg width="32" height="32" viewBox="0 0 32 32" fill="none" xmlns="http://www.w3.org/2000/svg">
<path d="M2.66663 10.1667C2.66663 9.0616 3.10561 8.00179 3.88701 7.22039C4.66842 6.43899 5.72822 6 6.83329 6H25.1666C26.2717 6 27.3315 6.43899 28.1129 7.22039C28.8943 8.00179 29.3333 9.0616 29.3333 10.1667V21.8333C29.3333 22.9384 28.8943 23.9982 28.1129 24.7796C27.3315 25.561 26.2717 26 25.1666 26H6.83329C5.72822 26 4.66842 25.561 3.88701 24.7796C3.10561 23.9982 2.66663 22.9384 2.66663 21.8333V10.1667ZM6.83329 7.66667C6.17025 7.66667 5.53437 7.93006 5.06553 8.3989C4.59668 8.86774 4.33329 9.50363 4.33329 10.1667V12.3333H27.6666V10.1667C27.6666 9.50363 27.4032 8.86774 26.9344 8.3989C26.4655 7.93006 25.8297 7.66667 25.1666 7.66667H6.83329ZM4.33329 21.8333C4.33329 22.4964 4.59668 23.1323 5.06553 23.6011C5.53437 24.0699 6.17025 24.3333 6.83329 24.3333H25.1666C25.8297 24.3333 26.4655 24.0699 26.9344 23.6011C27.4032 23.1323 27.6666 22.4964 27.6666 21.8333V14H4.33329V21.8333ZM20.8333 19.6667C20.6123 19.6667 20.4003 19.7545 20.244 19.9107C20.0878 20.067 20 20.279 20 20.5C20 20.721 20.0878 20.933 20.244 21.0893C20.4003 21.2455 20.6123 21.3333 20.8333 21.3333H24.5C24.721 21.3333 24.9329 21.2455 25.0892 21.0893C25.2455 20.933 25.3333 20.721 25.3333 20.5C25.3333 20.279 25.2455 20.067 25.0892 19.9107C24.9329 19.7545 24.721 19.6667 24.5 19.6667H20.8333Z" fill="#46266E"/>
</svg>
