<svg width="25" height="19" viewBox="0 0 25 19" fill="none" xmlns="http://www.w3.org/2000/svg">
<path d="M24.6183 2.25392C23.713 2.62442 22.7278 2.89107 21.713 2.99493C22.7666 2.4011 23.5556 1.46294 23.9319 0.356482C22.9433 0.914455 21.8602 1.30571 20.7308 1.51291C20.2587 1.03413 19.6878 0.652717 19.0535 0.392431C18.4193 0.132145 17.7354 -0.0014365 17.0444 1.16496e-05C14.2485 1.16496e-05 12 2.15006 12 4.78851C12 5.15901 12.0473 5.52952 12.1243 5.88599C7.93786 5.67828 4.20414 3.78085 1.72189 0.875751C1.2696 1.60866 1.03258 2.44317 1.0355 3.29245C1.0355 4.95411 1.92603 6.41929 3.28402 7.281C2.48374 7.2511 1.7022 7.04241 1.00296 6.67191V6.73085C1.00296 9.05774 2.73668 10.986 5.04733 11.4295C4.61348 11.5364 4.16718 11.5911 3.71893 11.5923C3.39053 11.5923 3.07988 11.5615 2.76627 11.5194C3.40532 13.4168 5.26627 14.795 7.48224 14.8399C5.74852 16.1282 3.57692 16.8861 1.21893 16.8861C0.795858 16.8861 0.405325 16.872 0 16.8271C2.23668 18.1884 4.89053 18.9744 7.74852 18.9744C17.0266 18.9744 22.1035 11.6821 22.1035 5.35269C22.1035 5.14498 22.1035 4.93727 22.0887 4.72956C23.071 4.0475 23.9319 3.20263 24.6183 2.25392Z" fill="black"/>
</svg>
