<svg width="21" height="19" viewBox="0 0 21 19" fill="none" xmlns="http://www.w3.org/2000/svg">
<path fill-rule="evenodd" clip-rule="evenodd" d="M2.64023 0C12.592 0 20.6915 7.66161 20.7337 17.0936V17.0942H20.7352V18.0921H20.7234C20.697 18.3134 20.5927 18.5198 20.4272 18.6778C20.2617 18.8358 20.0449 18.9361 19.8118 18.9625V18.9743H17.9415V18.9722C17.6885 18.9672 17.446 18.8752 17.2592 18.7132C17.0724 18.5513 16.954 18.3304 16.926 18.0918H16.9142V17.0939H16.9248C16.8826 9.6538 10.4919 3.61329 2.63992 3.61329C2.63247 3.61329 2.62502 3.61278 2.61756 3.61227C2.61135 3.61184 2.60514 3.61141 2.59893 3.61128V3.62511H1.54702V3.61387C1.31373 3.58893 1.09617 3.48993 0.929643 3.33294C0.763117 3.17595 0.657396 2.97017 0.629638 2.74901H0.617188V0.974627H0.619313C0.624607 0.734603 0.721638 0.504579 0.892349 0.327359C1.06306 0.150139 1.29582 0.0377961 1.54732 0.0112356V0H2.59923V0.00201666C2.60541 0.00188639 2.61153 0.0014616 2.61767 0.00103528C2.6251 0.000518767 2.63257 0 2.64023 0ZM2.61767 6.83795H2.61767H2.61766C2.61152 6.83838 2.60541 6.8388 2.59923 6.83893V6.83691H1.54732V6.84815C1.29582 6.87471 1.06306 6.98705 0.892349 7.16427C0.721638 7.34149 0.624607 7.57152 0.619313 7.81154H0.617188V9.58592H0.629638C0.657448 9.80707 0.763186 10.0128 0.929703 10.1698C1.09622 10.3268 1.31375 10.4258 1.54702 10.4508V10.462H2.59893V10.4482C2.60514 10.4483 2.61135 10.4488 2.61756 10.4492C2.62502 10.4497 2.63247 10.4502 2.63992 10.4502C6.51837 10.4502 9.67683 13.4236 9.71873 17.094H9.70871V18.0919H9.72056C9.74855 18.3305 9.86697 18.5514 10.0538 18.7133C10.2406 18.8753 10.483 18.9673 10.736 18.9724V18.9744H12.606V18.9626C12.8391 18.9362 13.056 18.8359 13.2214 18.6779C13.3869 18.5199 13.4913 18.3135 13.5176 18.0922H13.5295V17.0943H13.5276C13.486 11.4312 8.61854 6.83691 2.64023 6.83691C2.63257 6.83691 2.62511 6.83743 2.61767 6.83795ZM3.46699 13.7939C3.11676 13.7939 2.76995 13.8594 2.4464 13.9866C2.12284 14.1138 1.82886 14.3002 1.58127 14.5352C1.33367 14.7702 1.1373 15.0492 1.00339 15.3562C0.869468 15.6633 0.800622 15.9923 0.800782 16.3246C0.800782 16.6568 0.869761 16.9858 1.00378 17.2928C1.1378 17.5997 1.33424 17.8787 1.58187 18.1136C1.82951 18.3485 2.1235 18.5349 2.44705 18.662C2.7706 18.7892 3.11739 18.8546 3.4676 18.8546C3.81781 18.8546 4.16459 18.7892 4.48814 18.662C4.8117 18.5349 5.10568 18.3485 5.35332 18.1136C5.60096 17.8787 5.79739 17.5997 5.93141 17.2928C6.06543 16.9858 6.13441 16.6568 6.13441 16.3246C6.13457 15.9922 6.06569 15.6631 5.93169 15.356C5.7977 15.0489 5.60122 14.7698 5.3535 14.5348C5.10577 14.2998 4.81166 14.1134 4.48796 13.9863C4.16426 13.8591 3.81733 13.7938 3.46699 13.7939Z" fill="black"/>
</svg>
